<?xml version="1.0" encoding="utf-8"?>
<!-- Generator: Adobe Illustrator 16.0.0, SVG Export Plug-In . SVG Version: 6.00 Build 0)  -->
<!DOCTYPE svg PUBLIC "-//W3C//DTD SVG 1.1//EN" "http://www.w3.org/Graphics/SVG/1.1/DTD/svg11.dtd">
<svg version="1.1" id="Layer_1" xmlns="http://www.w3.org/2000/svg" xmlns:xlink="http://www.w3.org/1999/xlink" x="0px" y="0px"
	 width="24px" height="24px" viewBox="0 0 24 24" enable-background="new 0 0 24 24" xml:space="preserve">
<g>
	<path fill="#FFFFFF" d="M14.918,21.795H1.554V5.56h18.304v5.616c0.682,0.031,1.332,0.572,1.777,1.261V0.584h-4.211v2.51
		c0,1.097-1.453,1.097-1.453,0v-2.51H5.494v2.573c0,1.098-1.453,1.098-1.453,0V0.584h-4.119v22.832h16.32
		C15.857,22.824,15.373,22.32,14.918,21.795z"/>
	<rect x="3.151" y="7.75" fill="#FFFFFF" width="2.318" height="2.213"/>
	<rect x="7.136" y="7.75" fill="#FFFFFF" width="2.317" height="2.213"/>
	<rect x="11.476" y="7.75" fill="#FFFFFF" width="2.317" height="2.213"/>
	<rect x="3.117" y="12.893" fill="#FFFFFF" width="2.317" height="2.213"/>
	<rect x="7.09" y="12.967" fill="#FFFFFF" width="2.317" height="2.213"/>
	<rect x="3.117" y="17.832" fill="#FFFFFF" width="2.317" height="2.211"/>
	<rect x="7.012" y="17.756" fill="#FFFFFF" width="2.317" height="2.215"/>
	<path fill="#FFFFFF" d="M24.078,16.561c0,3.785-3.215,6.855-7.178,6.855c-3.964,0-7.179-3.07-7.179-6.855s3.214-6.855,7.179-6.855
		C20.863,9.705,24.078,12.775,24.078,16.561z M16.9,11.412c-2.979,0-5.393,2.305-5.393,5.149s2.414,5.148,5.393,5.148
		s5.393-2.305,5.393-5.148S19.879,11.412,16.9,11.412z"/>
	<g>
		<path fill="#FFFFFF" d="M18.881,20.482c-0.043,0-0.086-0.016-0.119-0.043c-1.17-0.941-2.445-2.047-2.793-3.277
			c-0.125-0.531,0.193-1.063,0.717-1.189c0.488-0.119,0.984,0.16,1.145,0.643c0.205,0.729,1.605,1.855,2.131,2.279
			c0.086,0.064,0.105,0.189,0.041,0.277c-0.064,0.084-0.186,0.105-0.271,0.039c-0.004-0.002-0.006-0.006-0.01-0.008
			c-1-0.807-2.055-1.729-2.266-2.479c-0.088-0.314-0.412-0.492-0.721-0.404c-0.309,0.09-0.486,0.418-0.396,0.732
			c0.314,1.119,1.539,2.176,2.66,3.078c0.084,0.066,0.098,0.189,0.033,0.275c-0.037,0.047-0.094,0.078-0.152,0.078h0.002V20.482z"/>
		<path fill="#FFFFFF" d="M13.951,19.484c-0.105,0-0.191-0.088-0.191-0.197c0-0.086,0.055-0.162,0.135-0.188
			c0.217-0.068,0.9-0.379,0.582-1.504c-0.385-1.359,0.387-2.777,1.725-3.168c0.002,0,0.002,0,0.002,0
			c1.311-0.375,2.674,0.369,3.096,1.68c0.098,0.094,0.758,0.648,1.211,1.021c0.082,0.072,0.09,0.195,0.02,0.279
			c-0.066,0.078-0.182,0.092-0.264,0.025c-1.246-1.025-1.287-1.096-1.307-1.131c-0.01-0.014-0.016-0.029-0.02-0.043
			c-0.346-1.129-1.51-1.775-2.629-1.453c-1.133,0.332-1.785,1.531-1.461,2.68v0.002c0.33,1.166-0.244,1.799-0.838,1.986
			C13.992,19.482,13.973,19.484,13.951,19.484z"/>
		<path fill="#FFFFFF" d="M14.572,20.234c-0.107,0-0.193-0.086-0.193-0.195c0-0.086,0.055-0.16,0.137-0.188
			c0.801-0.254,1.094-0.674,0.703-2.486c-0.24-0.936,0.289-1.895,1.197-2.182c0.926-0.268,1.891,0.277,2.158,1.215
			c0.055,0.191,0.301,0.557,1.738,1.715c0.088,0.064,0.105,0.188,0.041,0.275c-0.064,0.086-0.186,0.105-0.271,0.039
			c-0.002,0-0.006-0.004-0.008-0.006c-1.592-1.275-1.797-1.646-1.873-1.914c-0.207-0.732-0.959-1.156-1.678-0.945
			c-0.713,0.23-1.119,0.988-0.926,1.721c0.398,1.848,0.154,2.59-0.969,2.947C14.609,20.234,14.592,20.236,14.572,20.234z"/>
		<path fill="#FFFFFF" d="M19.418,19.844c-0.051,0-0.1-0.023-0.137-0.057c-0.131-0.119-0.266-0.23-0.408-0.334
			c-0.691-0.533-1.855-1.43-2.162-2.512c-0.029-0.104,0.029-0.213,0.129-0.246c0.104-0.031,0.211,0.027,0.242,0.131
			c0,0.002,0,0.006,0.002,0.006c0.271,0.955,1.369,1.803,2.023,2.307c0.156,0.115,0.307,0.238,0.449,0.367
			c0.074,0.078,0.074,0.203,0,0.281C19.52,19.82,19.471,19.844,19.418,19.844z"/>
		<path fill="#FFFFFF" d="M16.512,21.42h-0.014c-0.105-0.008-0.188-0.102-0.182-0.209c0.014-0.229,0.117-1.367,0.775-1.367
			c0.412,0.049,0.773,0.297,0.971,0.668c0.041,0.061,0.088,0.119,0.139,0.178c0.072,0.076,0.07,0.203-0.006,0.279
			c-0.076,0.074-0.195,0.074-0.27,0c-0.064-0.07-0.123-0.146-0.178-0.223c-0.166-0.229-0.369-0.512-0.656-0.512
			c-0.209,0-0.363,0.594-0.387,1C16.699,21.336,16.613,21.42,16.512,21.42z"/>
		<path fill="#FFFFFF" d="M15.348,21.023c-0.105,0-0.193-0.086-0.193-0.195c0-0.088,0.053-0.162,0.135-0.188
			c0.488-0.164,0.813-1.197,0.65-1.725c-0.039-0.098,0.012-0.215,0.111-0.254c0.1-0.037,0.213,0.014,0.25,0.115
			c0.002,0.008,0.004,0.016,0.006,0.021c0.207,0.654-0.154,1.971-0.898,2.217C15.389,21.023,15.369,21.023,15.348,21.023z"/>
		<path fill="#FFFFFF" d="M13.797,17.086c-0.107,0-0.193-0.088-0.193-0.199c0.002-1.848,1.477-3.344,3.295-3.348
			c1.789,0,2.43,1.049,2.896,1.818c0.219,0.361,0.41,0.672,0.654,0.752c0.102,0.033,0.158,0.145,0.125,0.246
			c-0.031,0.104-0.141,0.162-0.242,0.129c-0.002,0-0.002,0-0.002,0c-0.379-0.125-0.604-0.496-0.865-0.922
			c-0.443-0.727-0.994-1.627-2.566-1.627c-1.604,0.002-2.906,1.322-2.908,2.951C13.99,16.998,13.904,17.086,13.797,17.086z"/>
		<path fill="#FFFFFF" d="M13.99,18.465c-0.072,0-0.141-0.043-0.174-0.109c-0.111-0.211-0.184-0.441-0.213-0.678
			c0-0.109,0.086-0.199,0.193-0.199s0.193,0.09,0.193,0.199c0.031,0.174,0.092,0.344,0.174,0.5c0.047,0.1,0.01,0.217-0.086,0.266
			C14.051,18.457,14.021,18.465,13.99,18.465z"/>
		<path fill="#FFFFFF" d="M19.613,14.326c-0.068,0-0.131-0.035-0.168-0.094c-0.189-0.32-1.25-1.086-2.74-1.086
			c-1.551,0-2.381,0.805-2.549,1.086c-0.051,0.094-0.17,0.129-0.264,0.076s-0.127-0.172-0.074-0.268
			c0.002-0.002,0.004-0.008,0.006-0.014c0.213-0.355,1.143-1.275,2.881-1.275c1.633,0,2.807,0.832,3.072,1.277
			c0.057,0.092,0.027,0.213-0.064,0.27C19.682,14.318,19.646,14.326,19.613,14.326z"/>
		<path fill="#FFFFFF" d="M18.838,12.752c-0.021,0-0.043-0.004-0.064-0.012c-0.076-0.025-0.152-0.055-0.227-0.082
			c-0.586-0.232-1.215-0.334-1.842-0.3c-0.932,0-1.141,0.109-1.432,0.261c-0.07,0.035-0.145,0.074-0.234,0.117
			c-0.098,0.045-0.213-0.002-0.256-0.1c-0.043-0.102,0-0.217,0.098-0.26c0.082-0.039,0.152-0.075,0.219-0.11
			c0.322-0.168,0.58-0.303,1.604-0.303c0.674-0.034,1.35,0.075,1.977,0.325c0.072,0.027,0.145,0.053,0.221,0.079
			c0.102,0.033,0.156,0.144,0.125,0.247C18.998,12.697,18.922,12.754,18.838,12.752z"/>
		<path fill="#FFFFFF" d="M20.389,15.51c-0.086,0-0.16-0.057-0.186-0.137c-0.1-0.26-0.225-0.508-0.369-0.746
			c-0.057-0.09-0.027-0.215,0.064-0.27c0.092-0.057,0.211-0.027,0.268,0.063l0,0c0.158,0.266,0.297,0.543,0.406,0.834
			c0.033,0.104-0.023,0.215-0.125,0.244C20.428,15.508,20.406,15.51,20.389,15.51z"/>
	</g>
</g>
</svg>
