<?xml version="1.0" encoding="utf-8"?>
<!-- Generator: Adobe Illustrator 16.0.0, SVG Export Plug-In . SVG Version: 6.00 Build 0)  -->
<!DOCTYPE svg PUBLIC "-//W3C//DTD SVG 1.1//EN" "http://www.w3.org/Graphics/SVG/1.1/DTD/svg11.dtd">
<svg version="1.1" xmlns="http://www.w3.org/2000/svg" xmlns:xlink="http://www.w3.org/1999/xlink" x="0px" y="0px" width="1200px"
	 height="800px" viewBox="0 0 1200 800" enable-background="new 0 0 1200 800" xml:space="preserve">
<g id="BACKGROUND">
	<g>
		<g>
			<rect x="960.434" y="301.885" fill="#FFBE24" width="25" height="346.796"/>
			<rect x="960.434" y="627.845" fill="#ECECEC" width="25" height="20.834"/>
			<path fill="#F08281" d="M985.434,648.679v16.516c0,2.385-1.934,4.318-4.32,4.318h-16.359c-2.387,0-4.32-1.934-4.32-4.318v-16.516
				H985.434z"/>
			<polygon fill="#EAA86C" points="960.434,301.885 972.934,255.234 985.434,301.885 			"/>
			<rect x="960.434" y="301.885" opacity="0.3" fill="#FFFFFF" width="12.5" height="346.794"/>
			<path opacity="0.3" fill="#FFFFFF" d="M972.934,669.513h-8.18c-2.387,0-4.32-1.934-4.32-4.318v-16.516h12.5V669.513z"/>
			<g>
				<defs>
					<polygon id="SVGID_1_" points="960.434,301.885 972.934,255.234 985.434,301.885 					"/>
				</defs>
				<clipPath id="SVGID_2_">
					<use xlink:href="#SVGID_1_"  overflow="visible"/>
				</clipPath>
				<rect x="964.994" y="255.234" clip-path="url(#SVGID_2_)" fill="#2D2D2C" width="15.879" height="15.627"/>
			</g>
		</g>
		<g>
			
				<rect x="330.358" y="51.053" transform="matrix(0.9986 -0.0523 0.0523 0.9986 -20.11 31.946)" fill="#ECECEC" width="539.284" height="697.896"/>
			<g>
				<rect x="330.356" y="51.052" fill="#FDFDFD" width="539.283" height="697.896"/>
			</g>
		</g>
		<g>
			<path fill="#FFBE24" d="M194.252,244.241h-54.984c-3.541,0-6.412,2.871-6.412,6.411v76.646c0,3.542,2.871,6.412,6.412,6.412
				h54.984c3.543,0,6.412-2.87,6.412-6.412v-76.646C200.664,247.112,197.795,244.241,194.252,244.241"/>
			<rect x="141.76" y="253.146" opacity="0.5" fill="#FFBE24" width="50" height="71.66"/>
			<rect x="166.76" y="253.146" fill="#D9D9D9" width="25" height="71.66"/>
			<path fill="#868686" d="M188.773,288.976c0,2.955-2.393,5.348-5.346,5.348c-2.955,0-5.348-2.393-5.348-5.348
				c0-2.954,2.393-5.348,5.348-5.348C186.381,283.628,188.773,286.022,188.773,288.976"/>
			<rect x="166.76" y="253.146" fill="#C6C6C5" width="8.334" height="71.66"/>
		</g>
		<g>
			<rect x="101.252" y="406.785" fill="#2D2D2C" width="136.428" height="232.03"/>
			<rect x="112.114" y="417.649" fill="#B1B1B1" width="114.702" height="43.854"/>
			<g>
				<circle fill="#F08281" cx="124.422" cy="495.536" r="12.308"/>
				<circle fill="#FFBE24" cx="154.452" cy="495.536" r="12.308"/>
				<circle fill="#9C9B9B" cx="184.481" cy="495.536" r="12.309"/>
				<circle fill="#9C9B9B" cx="214.51" cy="495.536" r="12.309"/>
				<circle fill="#9C9B9B" cx="124.422" cy="525.562" r="12.308"/>
				<circle fill="#9C9B9B" cx="154.452" cy="525.562" r="12.308"/>
				<circle fill="#9C9B9B" cx="184.481" cy="525.562" r="12.309"/>
				<circle fill="#9C9B9B" cx="214.51" cy="525.562" r="12.309"/>
				<path fill="#9C9B9B" d="M136.73,555.593c0,6.797-5.511,12.305-12.308,12.305c-6.798,0-12.309-5.508-12.309-12.305
					c0-6.799,5.511-12.309,12.309-12.309C131.22,543.284,136.73,548.794,136.73,555.593z"/>
				<path fill="#9C9B9B" d="M166.76,555.593c0,6.797-5.511,12.305-12.309,12.305c-6.797,0-12.308-5.508-12.308-12.305
					c0-6.799,5.511-12.309,12.308-12.309C161.249,543.284,166.76,548.794,166.76,555.593z"/>
				<path fill="#9C9B9B" d="M196.79,555.593c0,6.797-5.511,12.305-12.309,12.305c-6.797,0-12.309-5.508-12.309-12.305
					c0-6.799,5.512-12.309,12.309-12.309C191.279,543.284,196.79,548.794,196.79,555.593z"/>
				<path fill="#9C9B9B" d="M226.818,555.593c0,6.797-5.512,12.305-12.309,12.305c-6.798,0-12.309-5.508-12.309-12.305
					c0-6.799,5.511-12.309,12.309-12.309C221.307,543.284,226.818,548.794,226.818,555.593z"/>
				<circle fill="#9C9B9B" cx="124.422" cy="585.616" r="12.308"/>
				<circle fill="#9C9B9B" cx="154.452" cy="585.616" r="12.308"/>
				<circle fill="#9C9B9B" cx="184.481" cy="585.616" r="12.309"/>
				<circle fill="#9C9B9B" cx="214.51" cy="585.616" r="12.309"/>
				<path fill="#9C9B9B" d="M136.73,615.647c0,6.797-5.511,12.305-12.308,12.305c-6.798,0-12.309-5.508-12.309-12.305
					c0-6.799,5.511-12.309,12.309-12.309C131.22,603.339,136.73,608.849,136.73,615.647z"/>
				<path fill="#9C9B9B" d="M166.76,615.647c0,6.797-5.511,12.305-12.309,12.305c-6.797,0-12.308-5.508-12.308-12.305
					c0-6.799,5.511-12.309,12.308-12.309C161.249,603.339,166.76,608.849,166.76,615.647z"/>
				<path fill="#9C9B9B" d="M196.79,615.647c0,6.797-5.511,12.305-12.309,12.305c-6.797,0-12.309-5.508-12.309-12.305
					c0-6.799,5.512-12.309,12.309-12.309C191.279,603.339,196.79,608.849,196.79,615.647z"/>
				<path fill="#9C9B9B" d="M226.818,615.647c0,6.797-5.512,12.305-12.309,12.305c-6.798,0-12.309-5.508-12.309-12.305
					c0-6.799,5.511-12.309,12.309-12.309C221.307,603.339,226.818,608.849,226.818,615.647z"/>
			</g>
			<rect x="112.114" y="417.649" opacity="0.3" fill="#FFFFFF" width="57.352" height="43.854"/>
		</g>
		<g>
			<path fill="#F08281" d="M1130.815,652.169V494.446c0-4.771-3.869-8.639-8.641-8.639h-56.467c-4.773,0-8.641,3.867-8.641,8.639
				v157.723c0,4.771,3.867,8.639,8.641,8.639h56.467C1126.946,660.808,1130.815,656.94,1130.815,652.169"/>
			<path opacity="0.3" fill="#FFFFFF" d="M1057.067,631.948v20.221c0,4.771,3.867,8.639,8.641,8.639h56.467
				c4.771,0,8.641-3.867,8.641-8.639v-20.221c0-4.771-3.869-8.641-8.641-8.641h-56.467
				C1060.935,623.308,1057.067,627.177,1057.067,631.948"/>
		</g>
		<path fill="#D9D9D9" d="M1120.173,424.559h-49.189c-5.867,0-10.643-4.774-10.643-10.643c0-5.867,4.775-10.642,10.643-10.642
			h49.189c4.063,0,7.367,3.305,7.367,7.367s-3.305,7.368-7.367,7.368h-43.891c-2.256,0-4.094-1.836-4.094-4.094
			c0-2.256,1.838-4.093,4.094-4.093h16.816v-3.274h-16.816c-4.068,0-7.367,3.298-7.367,7.367c0,4.07,3.299,7.368,7.367,7.368h43.891
			c5.877,0,10.643-4.765,10.643-10.643c0-5.877-4.766-10.642-10.643-10.642h-49.189c-7.686,0-13.916,6.229-13.916,13.916
			s6.23,13.917,13.916,13.917h49.189V424.559z"/>
		<g>
			<defs>
				<rect id="SVGID_3_" width="1200" height="800"/>
			</defs>
			<clipPath id="SVGID_4_">
				<use xlink:href="#SVGID_3_"  overflow="visible"/>
			</clipPath>
		</g>
	</g>
</g>
<g id="DESIGNED_BY_FREEPIK">
</g>
</svg>
