<?xml version="1.0" encoding="utf-8"?>
<!-- Generator: Adobe Illustrator 16.0.0, SVG Export Plug-In . SVG Version: 6.00 Build 0)  -->
<!DOCTYPE svg PUBLIC "-//W3C//DTD SVG 1.1//EN" "http://www.w3.org/Graphics/SVG/1.1/DTD/svg11.dtd">
<svg version="1.1" id="Layer_1" xmlns="http://www.w3.org/2000/svg" xmlns:xlink="http://www.w3.org/1999/xlink" x="0px" y="0px"
	 width="24px" height="24px" viewBox="0 0 24 24" enable-background="new 0 0 24 24" xml:space="preserve">
<path fill="#FFFFFF" d="M-288,38.333L-288,38.333L-288,38.333z"/>
<g>
	<path fill="#FFFFFF" d="M19.388,0v2.638c0,1.154-1.593,1.154-1.593,0V0H6.315v2.706c0,1.153-1.592,1.153-1.592,0V0H0.21v24H24V0
		H19.388z M22.054,22.297H1.998V5.231h20.056V22.297L22.054,22.297z"/>
	<rect x="4.17" y="6.777" fill="#FFFFFF" width="2.54" height="2.853"/>
	<rect x="8.509" y="6.777" fill="#FFFFFF" width="2.54" height="2.853"/>
	<rect x="13.09" y="6.777" fill="#FFFFFF" width="2.54" height="2.853"/>
	<rect x="17.712" y="6.777" fill="#FFFFFF" width="2.538" height="2.853"/>
	<rect x="4.171" y="11.604" fill="#FFFFFF" width="2.539" height="2.854"/>
	<rect x="8.51" y="11.605" fill="#FFFFFF" width="2.539" height="2.854"/>
	<rect x="4.171" y="16.349" fill="#FFFFFF" width="2.539" height="2.853"/>
	<rect x="8.51" y="16.349" fill="#FFFFFF" width="2.539" height="2.853"/>
	<polyline fill="#FFFFFF" points="13.09,11.605 15.63,11.605 15.63,14.458 13.09,14.458 	"/>
	<polyline fill="#FFFFFF" points="12.841,16.349 15.381,16.349 15.381,19.201 12.841,19.201 	"/>
	<polyline fill="#FFFFFF" points="17.712,16.349 20.25,16.349 20.25,19.201 17.712,19.201 	"/>
	<polyline fill="#FFFFFF" points="20.271,14.458 17.73,14.458 17.73,11.605 20.271,11.605 	"/>
</g>
</svg>
