<?xml version="1.0" encoding="utf-8"?>
<!-- Generator: Adobe Illustrator 16.0.0, SVG Export Plug-In . SVG Version: 6.00 Build 0)  -->
<!DOCTYPE svg PUBLIC "-//W3C//DTD SVG 1.1//EN" "http://www.w3.org/Graphics/SVG/1.1/DTD/svg11.dtd">
<svg version="1.1" id="Layer_1" xmlns="http://www.w3.org/2000/svg" xmlns:xlink="http://www.w3.org/1999/xlink" x="0px" y="0px"
	 width="384px" height="384px" viewBox="1482.658 -559.144 384 384" enable-background="new 1482.658 -559.144 384 384"
	 xml:space="preserve">
<g>
	<g>
		<path fill="#FFFFFF" d="M1740.925-395.161c8.032-7.901,16.061-15.801,24.093-23.701c-17.312-7.331-29.438-24.26-29.438-43.979
			c0-8.516,2.268-16.507,6.227-23.434c-8.325-8.189-16.649-16.382-24.974-24.572c-9.465,13.202-15.04,29.292-15.04,46.675
			C1701.794-435.008,1717.445-409.453,1740.925-395.161z"/>
		<path fill="#FFFFFF" d="M1825.035-488.881c8.262-8.129,16.524-16.258,24.789-24.388c-15.061-19.444-38.833-32.003-65.599-32.003
			c-24.193,0-45.949,10.254-61.029,26.584c8.192,8.059,16.382,16.116,24.572,24.176c8.915-9.925,21.939-16.191,36.458-16.191
			C1801.33-510.703,1816.359-502.012,1825.035-488.881z"/>
		<path fill="#FFFFFF" d="M1813.353-424.502c7.764,7.641,15.53,15.28,23.297,22.92c18.326-14.875,30.009-37.391,30.009-62.59
			c0-14.812-4.057-28.683-11.104-40.634c-8.571,8.434-17.144,16.866-25.715,25.301c1.959,5.19,3.036,10.804,3.036,16.665
			C1832.875-447.155,1825.203-433.232,1813.353-424.502z"/>
		<path fill="#FFFFFF" d="M1804.344-419.265c-6.131,2.745-12.939,4.287-20.118,4.287c-2.772,0-5.486-0.241-8.134-0.68
			c-8.602,8.464-17.204,16.926-25.807,25.391c10.354,4.608,21.837,7.198,33.941,7.198c16.229,0,31.35-4.633,44.104-12.599
			C1820.333-403.533,1812.339-411.4,1804.344-419.265z"/>
	</g>
	<g>
		<g>
			<rect x="1483.658" y="-348.219" fill="#FFFFFF" width="22.912" height="156.862"/>
			<rect x="1523.754" y="-322.075" fill="#FFFFFF" width="21.48" height="130.719"/>
			<rect x="1563.849" y="-288.754" fill="#FFFFFF" width="23.002" height="98.423"/>
			<rect x="1607.215" y="-353.347" fill="#FFFFFF" width="21.48" height="163.016"/>
			<polygon fill="#FFFFFF" points="1756.219,-288.754 1701.625,-221.927 1709.491,-214.793 1764.089,-281.622 			"/>
			<polygon fill="#FFFFFF" points="1798.343,-264.371 1756.098,-288.754 1751.112,-279.163 1793.355,-254.779 			"/>
			<polygon fill="#FFFFFF" points="1861.008,-300.193 1789.17,-265.926 1793.747,-254.779 1865.596,-289.049 			"/>
		</g>
		<g>
			<rect x="1671.389" y="-338.967" fill="#FFFFFF" width="18.001" height="148.636"/>
			<rect x="1685.661" y="-208.756" fill="#FFFFFF" width="180.998" height="18.425"/>
		</g>
	</g>
	<g>
		<path fill="#FFFFFF" d="M1597.97-545.334v15.125c0,6.613-9.488,6.613-9.488,0v-15.125h-68.434v15.51c0,6.613-9.489,6.613-9.489,0
			v-15.51h-26.901v137.598h141.805v-137.598H1597.97z M1613.862-417.494H1494.31v-97.846h119.551V-417.494z"/>
		<rect x="1504.273" y="-506.485" fill="#FFFFFF" width="15.135" height="16.357"/>
		<rect x="1525.148" y="-506.485" fill="#FFFFFF" width="15.135" height="16.357"/>
		<rect x="1545.049" y="-506.485" fill="#FFFFFF" width="15.133" height="16.357"/>
		<rect x="1566.398" y="-506.485" fill="#FFFFFF" width="15.134" height="16.357"/>
		<rect x="1587.982" y="-505.46" fill="#FFFFFF" width="15.133" height="16.358"/>
		<rect x="1504.524" y="-478.284" fill="#FFFFFF" width="15.134" height="16.357"/>
		<rect x="1524.423" y="-478.284" fill="#FFFFFF" width="15.136" height="16.357"/>
		<rect x="1545.772" y="-478.284" fill="#FFFFFF" width="15.136" height="16.357"/>
		<rect x="1504.524" y="-451.601" fill="#FFFFFF" width="15.134" height="16.359"/>
		<rect x="1524.423" y="-451.601" fill="#FFFFFF" width="15.136" height="16.359"/>
		<rect x="1545.772" y="-451.601" fill="#FFFFFF" width="15.136" height="16.359"/>
		<polyline fill="#FFFFFF" points="1566.515,-478.798 1581.651,-478.798 1581.651,-462.44 1566.515,-462.44 		"/>
		<polyline fill="#FFFFFF" points="1566.515,-451.601 1581.651,-451.601 1581.651,-435.242 1566.515,-435.242 		"/>
		<polyline fill="#FFFFFF" points="1587.982,-451.601 1603.115,-451.601 1603.115,-435.242 1587.982,-435.242 		"/>
		<polyline fill="#FFFFFF" points="1603.235,-462.44 1588.099,-462.44 1588.099,-478.798 1603.235,-478.798 		"/>
	</g>
</g>
</svg>
