<?xml version="1.0" encoding="utf-8"?>
<!-- Generator: Adobe Illustrator 16.0.0, SVG Export Plug-In . SVG Version: 6.00 Build 0)  -->
<!DOCTYPE svg PUBLIC "-//W3C//DTD SVG 1.1//EN" "http://www.w3.org/Graphics/SVG/1.1/DTD/svg11.dtd">
<svg version="1.1" id="Layer_1" xmlns="http://www.w3.org/2000/svg" xmlns:xlink="http://www.w3.org/1999/xlink" x="0px" y="0px"
	 width="24px" height="24px" viewBox="161 198 24 24" enable-background="new 161 198 24 24" xml:space="preserve">
<g>
	<ellipse fill="#FFFFFF" cx="172.989" cy="203.633" rx="4.693" ry="5.633"/>
</g>
<path fill="#FFFFFF" d="M184.563,213.938c0,0-0.428-4.149-7.906-4.865l-3.601,2.405l-3.594-2.405c0,0-6.446,0.424-7.353,3.425
	c-0.906,2.997-0.974,6.672-0.974,6.672s0.553,0.629,1.857,1.276c0.009-0.034,0.023-0.063,0.038-0.095
	c0.01-0.028,0.013-0.06,0.028-0.086l-0.032-0.013l1.85-5.355V221l-0.03-0.013c0.008,0.054,0.008,0.105,0.001,0.158
	c1.063,0.32,2.361,0.582,4.001,0.661c4.561,0.222,9.376-0.008,12.148-0.653c-0.008-0.058-0.005-0.113,0.005-0.169L180.958,221
	v-6.135l2.031,5.383l-0.041,0.016c0.025,0.043,0.046,0.086,0.058,0.135c0.001,0,0.001,0.001,0.001,0.001
	c0,0.001,0.001,0.003,0.002,0.004c1.667-0.904,1.906-1.227,1.906-1.227L184.563,213.938z M173.008,218.158l-1.384-1.755l0.947-3.335
	l-0.738-1.116h2.29l-0.717,1.166l1.02,3.254L173.008,218.158z"/>
</svg>
