<?xml version="1.0" encoding="utf-8"?>
<!-- Generator: Adobe Illustrator 16.0.0, SVG Export Plug-In . SVG Version: 6.00 Build 0)  -->
<!DOCTYPE svg PUBLIC "-//W3C//DTD SVG 1.1//EN" "http://www.w3.org/Graphics/SVG/1.1/DTD/svg11.dtd">
<svg version="1.1" id="Layer_1" xmlns="http://www.w3.org/2000/svg" xmlns:xlink="http://www.w3.org/1999/xlink" x="0px" y="0px"
	 width="24px" height="24px" viewBox="0 0 24 24" enable-background="new 0 0 24 24" xml:space="preserve">
<g>
	<path fill="#FFFFFF" d="M0.068,10.557c0.042,0.125,0.148,0.112,0.148,0.112h23.439c0,0,0.137,0.003,0.17-0.098
		c0.032-0.089-0.04-0.138-0.04-0.138L12.325,0.323c0,0-0.361-0.239-0.539-0.239c-0.182,0-0.571,0.257-0.571,0.257l-11.12,9.995
		C0.095,10.336,0.027,10.434,0.068,10.557z"/>
	<path fill="#FFFFFF" d="M19.438,9.194H4.34c-0.302,0-0.547,0.264-0.547,0.59v13.54c0,0.326,0.245,0.592,0.547,0.592h4.48
		c0.008-0.298,0.019-0.595,0.022-0.893v-7.428c0-0.328,0.244-0.592,0.545-0.592h4.548c0.302,0,0.545,0.264,0.545,0.592v7.434
		c0,0.066-0.012,0.129-0.033,0.187c0.019,0.233,0.025,0.467,0.023,0.7h4.967c0.302,0,0.548-0.266,0.548-0.592V9.784
		C19.985,9.458,19.739,9.194,19.438,9.194z"/>
</g>
</svg>
