<?xml version="1.0" encoding="utf-8"?>
<!-- Generator: Adobe Illustrator 16.0.0, SVG Export Plug-In . SVG Version: 6.00 Build 0)  -->
<!DOCTYPE svg PUBLIC "-//W3C//DTD SVG 1.1//EN" "http://www.w3.org/Graphics/SVG/1.1/DTD/svg11.dtd">
<svg version="1.1" id="Layer_1" xmlns="http://www.w3.org/2000/svg" xmlns:xlink="http://www.w3.org/1999/xlink" x="0px" y="0px"
	 width="24px" height="24px" viewBox="0 0 24 24" enable-background="new 0 0 24 24" xml:space="preserve">
<path fill="#FFFFFF" d="M-288,38.333L-288,38.333L-288,38.333z"/>
<g>
	<path fill="#FFFFFF" d="M8.869,21.114h6.359c0,0,0.146,2.555-3.052,2.728C12.177,23.842,9.06,23.895,8.869,21.114z"/>
	<path fill="#FFFFFF" d="M0.379,20.655H23.72v-0.937c0,0-2.749-1.043-2.813-4.795c-0.063-3.751-0.031-6.018-0.031-6.018
		s-1.042-4.821-5.844-5.889L14.97,2.08c0,0-2.685-4.325-5.749,0L9.159,2.992c0,0-5.337,1.72-5.655,5.81
		c-0.317,4.091-0.158,5.235-0.158,5.235S2.398,19.25,0.44,19.719L0.379,20.655z"/>
</g>
</svg>
