<?xml version="1.0" encoding="utf-8"?>
<!-- Generator: Adobe Illustrator 16.0.0, SVG Export Plug-In . SVG Version: 6.00 Build 0)  -->
<!DOCTYPE svg PUBLIC "-//W3C//DTD SVG 1.1//EN" "http://www.w3.org/Graphics/SVG/1.1/DTD/svg11.dtd">
<svg version="1.1" id="Layer_1" xmlns="http://www.w3.org/2000/svg" xmlns:xlink="http://www.w3.org/1999/xlink" x="0px" y="0px"
	 width="384px" height="384px" viewBox="561.567 -559.144 384 384" enable-background="new 561.567 -559.144 384 384"
	 xml:space="preserve">
<g id="Payroll">
	<g>
		<path fill="#FFFFFF" d="M856.911-407.269c-0.84-0.808-1.911-1.208-3.212-1.208H829.74c-1.582-7.429-4.574-13.887-8.959-19.353
			h32.634c1.306,0,2.384-0.4,3.224-1.208c0.834-0.805,1.251-1.836,1.251-3.091v-13.71c0-1.254-0.418-2.288-1.251-3.092
			c-0.839-0.809-1.918-1.209-3.224-1.209H736.874c-1.306,0-2.378,0.404-3.218,1.209c-0.838,0.805-1.264,1.835-1.264,3.089v17.875
			c0,1.167,0.443,2.174,1.333,3.021c0.889,0.85,1.93,1.278,3.149,1.278h20.312c19.702,0,32.21,5.064,37.528,15.189h-57.84
			c-1.306,0-2.378,0.402-3.218,1.208c-0.838,0.81-1.264,1.839-1.264,3.099v13.707c0,1.249,0.426,2.287,1.264,3.086
			c0.84,0.806,1.914,1.208,3.218,1.208h59.814c-2.06,7.35-6.847,12.949-14.362,16.802c-7.514,3.853-17.436,5.781-29.763,5.781
			h-15.689c-1.219,0-2.261,0.424-3.149,1.279c-0.89,0.848-1.333,1.86-1.333,3.021v17.068c0,1.163,0.426,2.148,1.264,2.957
			c17.93,18.274,41.177,43.853,69.751,76.741c0.837,1.075,2.005,1.614,3.501,1.614h27.311c1.964,0,3.322-0.798,4.065-2.421
			c0.933-1.61,0.746-3.134-0.557-4.573c-27.264-32.071-48.697-56.084-64.294-72.033c15.874-1.791,28.761-6.719,38.659-14.779
			c9.898-8.063,15.919-18.548,18.07-31.453h23.53c1.307,0,2.38-0.395,3.217-1.207c0.842-0.798,1.267-1.83,1.267-3.088v-13.704
			C858.177-405.43,857.753-406.455,856.911-407.269z"/>
	</g>
	<g>
		<g>
			<path fill="#FFFFFF" d="M635.636-341.197l22.377-17.958c46.479,5.331,49.139,36.33,49.139,36.33l2.192,39.13
				c0,0-1.567,2.69-14.083,10.61c-12.521,7.922-50.392,11.091-85.758,9.032c-35.368-2.055-47.938-19.697-47.938-19.697
				s0.417-27.459,6.051-49.844c5.634-22.392,45.695-25.56,45.695-25.56L635.636-341.197z M628.037-337.651l4.588,8.344
				l-5.881,24.902l8.591,13.107l8.828-13.349l-6.353-24.309l4.474-8.695H628.037L628.037-337.651z"/>
		</g>
		<ellipse fill="#FFFFFF" cx="636.879" cy="-399.78" rx="34.642" ry="42.062"/>
	</g>
	<path fill="#FFFFFF" d="M770.347-544.144c-61.233,0-115.073,31.901-146.278,80.16c2.303-0.238,4.634-0.37,6.991-0.37
		c10.472,0,20.533,2.147,29.733,6.029c26.332-31.362,65.495-51.327,109.342-51.327c79.318,0,143.62,65.088,143.62,145.376
		c0,80.291-64.302,145.377-143.62,145.377c-34.005,0-65.199-12.018-89.788-32.026c-3.848,1.593-7.853,2.846-11.973,3.743
		c-6.263,1.858-12.845,2.877-19.637,2.877c-1.358,0-2.709-0.042-4.052-0.111c31.777,33.313,76.296,54.084,125.66,54.084
		c96.52,0,174.766-79.205,174.766-176.906C945.114-464.94,866.867-544.144,770.347-544.144z"/>
</g>
</svg>
