<?xml version="1.0" encoding="utf-8"?>
<!-- Generator: Adobe Illustrator 16.0.0, SVG Export Plug-In . SVG Version: 6.00 Build 0)  -->
<!DOCTYPE svg PUBLIC "-//W3C//DTD SVG 1.1//EN" "http://www.w3.org/Graphics/SVG/1.1/DTD/svg11.dtd">
<svg version="1.1" id="Layer_1" xmlns="http://www.w3.org/2000/svg" xmlns:xlink="http://www.w3.org/1999/xlink" x="0px" y="0px"
	 width="384.001px" height="384px" viewBox="2415.752 -559.144 384.001 384" enable-background="new 2415.752 -559.144 384.001 384"
	 xml:space="preserve">
<g>
	<path fill="#FFFFFF" d="M2800.024-200.44c0,5.163-2.804,9.345-6.263,9.345h-370.743c-3.46,0-6.263-4.182-6.263-9.345l0,0
		c0-5.161,2.804-9.344,6.263-9.344h370.743C2797.221-209.784,2800.024-205.601,2800.024-200.44L2800.024-200.44z"/>
	<path fill="#FFFFFF" d="M2468.762-207.631c0,8.056-6.076,14.586-13.568,14.586h-13.566c-7.491,0-13.566-6.531-13.566-14.586
		v-224.267c0-8.056,6.075-14.588,13.566-14.588h13.566c7.492,0,13.568,6.532,13.568,14.588V-207.631z"/>
	<path fill="#FFFFFF" d="M2533.207-210.826c0,5.146-6.075,9.318-13.568,9.318h-13.565c-7.494,0-13.567-4.171-13.567-9.318v-143.242
		c0-5.146,6.073-9.317,13.567-9.317h13.565c7.493,0,13.568,4.172,13.568,9.317V-210.826z"/>
	<path fill="#FFFFFF" d="M2596.518-205.853c0,2.989-6.074,5.414-13.566,5.414h-13.566c-7.491,0-13.566-2.423-13.566-5.414v-83.231
		c0-2.989,6.075-5.414,13.566-5.414h13.566c7.492,0,13.566,2.423,13.566,5.414V-205.853z"/>
	<path fill="#FFFFFF" d="M2659.831-207.855c0,4.097-6.074,7.415-13.567,7.415h-13.565c-7.491,0-13.565-3.322-13.565-7.415v-114.029
		c0-4.099,6.074-7.417,13.565-7.417h13.565c7.493,0,13.567,3.322,13.567,7.417V-207.855z"/>
	<path fill="#FFFFFF" d="M2720.884-205.853c0,2.993-6.075,5.414-13.569,5.414h-13.564c-7.493,0-13.565-2.423-13.565-5.414v-83.231
		c0-2.993,6.072-5.414,13.565-5.414h13.564c7.494,0,13.569,2.423,13.569,5.414V-205.853z"/>
	<path fill="#FFFFFF" d="M2785.89-207.852c0,4.266-6.074,7.725-13.565,7.725h-13.566c-7.493,0-13.567-3.458-13.567-7.725v-118.729
		c0-4.267,6.074-7.724,13.567-7.724h13.566c7.491,0,13.565,3.457,13.565,7.724V-207.852z"/>
	<ellipse fill="#FFFFFF" cx="2452.368" cy="-525.907" rx="16.395" ry="18.882"/>
	<path fill="#FFFFFF" d="M2518.509-461.344c9.364,0,16.957,8.745,16.957,19.532s-7.593,19.533-16.957,19.533
		c-9.368,0-16.959-8.745-16.959-19.533S2509.14-461.344,2518.509-461.344z"/>
	<ellipse fill="#FFFFFF" cx="2577.298" cy="-371.493" rx="16.96" ry="19.532"/>
	<ellipse fill="#FFFFFF" cx="2639.481" cy="-402.746" rx="16.959" ry="19.532"/>
	<ellipse fill="#FFFFFF" cx="2765.541" cy="-398.945" rx="16.959" ry="19.533"/>
	<ellipse fill="#FFFFFF" cx="2700.532" cy="-344.693" rx="16.959" ry="18.692"/>
	<polygon fill="#FFFFFF" points="2461.977,-522.443 2519.448,-456.247 2510.499,-445.939 2453.499,-511.59 	"/>
	<polygon fill="#FFFFFF" points="2523.594,-446.484 2581.066,-380.291 2572.117,-369.981 2515.116,-435.634 	"/>
	<polygon fill="#FFFFFF" points="2571.203,-373.957 2643.382,-416.992 2649.201,-404.046 2577.614,-361.365 	"/>
	<polygon fill="#FFFFFF" points="2643.277,-408.856 2709.11,-353.961 2701.689,-342.153 2636.392,-396.597 	"/>
	<polygon fill="#FFFFFF" points="2697.656,-354.819 2764.674,-407.78 2771.837,-395.759 2705.366,-343.231 	"/>
</g>
</svg>
