<?xml version="1.0" encoding="utf-8"?>
<!-- Generator: Adobe Illustrator 16.0.0, SVG Export Plug-In . SVG Version: 6.00 Build 0)  -->
<!DOCTYPE svg PUBLIC "-//W3C//DTD SVG 1.1 Tiny//EN" "http://www.w3.org/Graphics/SVG/1.1/DTD/svg11-tiny.dtd">
<svg version="1.1" baseProfile="tiny" id="Layer_1" xmlns="http://www.w3.org/2000/svg" xmlns:xlink="http://www.w3.org/1999/xlink"
	 x="0px" y="0px" width="512px" height="512px" viewBox="0 0 512 512" xml:space="preserve">
<path fill="#FFFFFF" d="M349.578,236.872h-7.801c-2.413-7.555-5.438-14.9-9.028-21.978c-0.485-0.702-0.772-1.534-0.871-2.393l0,0
	c-0.194-0.289-0.354-0.598-0.483-0.922c-0.004-0.009-0.006-0.019-0.011-0.028c-0.128-0.324-0.225-0.661-0.288-1.006
	c-5.457,5.421-10.981,10.771-16.629,15.997c3.715,7.616,6.68,15.573,8.799,23.786c1.227,4.752,5.513,8.072,10.422,8.072h15.893
	c6.779,0,12.295,5.517,12.295,12.295v23.06c0,6.779-5.516,12.294-12.295,12.294h-15.893c-4.908,0-9.195,3.32-10.422,8.073
	c-2.979,11.543-7.572,22.606-13.651,32.888c-2.5,4.229-1.82,9.615,1.653,13.091l11.263,11.263c4.877,4.87,4.719,12.666-0.005,17.384
	l-16.309,16.308c-4.734,4.741-12.529,4.854-17.383-0.006l-11.257-11.258c-3.476-3.476-8.86-4.155-13.091-1.654
	c-10.281,6.08-21.346,10.674-32.888,13.652c-4.753,1.227-8.074,5.513-8.074,10.422v15.895c0,6.778-5.516,12.294-12.295,12.294
	h-23.057c-6.779,0-12.295-5.516-12.295-12.294v-15.895c0-4.909-3.321-9.195-8.074-10.422c-11.542-2.979-22.606-7.572-32.887-13.652
	c-5.205-3.078-10.531-0.904-13.091,1.653l-11.262,11.263c-4.861,4.867-12.656,4.729-17.383-0.004l-16.307-16.308
	c-4.735-4.729-4.863-12.521,0.004-17.383L88.135,360.1c3.475-3.476,4.155-8.86,1.654-13.091
	c-6.08-10.278-10.673-21.345-13.651-32.887c-1.227-4.753-5.513-8.074-10.422-8.074H49.822c-6.779,0-12.295-5.516-12.295-12.295
	v-23.058c0-6.779,5.516-12.295,12.295-12.295h15.893c4.908,0,9.195-3.32,10.422-8.074c2.979-11.542,7.571-22.607,13.651-32.887
	c2.501-4.229,1.821-9.616-1.654-13.09l-11.263-11.263c-4.876-4.871-4.719-12.666,0.004-17.384l16.309-16.307
	c4.734-4.742,12.529-4.854,17.382,0.005l11.258,11.258c3.474,3.475,8.859,4.155,13.09,1.654
	c10.281-6.08,21.346-10.673,32.887-13.652c4.753-1.227,8.074-5.513,8.074-10.422v-15.894c0-6.778,5.516-12.294,12.295-12.294h23.058
	c6.779,0,12.295,5.516,12.295,12.294v15.896c0,4.909,3.321,9.196,8.074,10.422c5.993,1.547,11.844,3.561,17.534,5.966
	c4.539-5.77,9.296-11.464,12.911-17.85c-5.526-2.55-11.195-4.779-16.993-6.632v-7.801c0-18.649-15.172-33.821-33.822-33.821H188.17
	c-18.65,0-33.823,15.172-33.823,33.821v7.8c-7.928,2.534-15.631,5.731-23.032,9.561l-5.523-5.523
	c-13.364-13.378-34.806-13.053-47.837-0.004l-16.298,16.298c-13.029,13.015-13.398,34.458-0.004,47.837l5.528,5.528
	c-3.83,7.4-7.026,15.103-9.56,23.032h-7.8C31.173,236.872,16,252.044,16,270.693v23.058c0,18.65,15.173,33.822,33.821,33.822h7.8
	c2.534,7.93,5.731,15.633,9.561,23.032l-5.524,5.523c-13.402,13.388-13.028,34.828-0.004,47.837l16.297,16.297
	c13,13.018,34.448,13.41,47.837,0.005l5.528-5.527c7.4,3.829,15.104,7.026,23.032,9.561v7.801c0,18.649,15.173,33.821,33.822,33.821
	h23.058c18.65,0,33.822-15.172,33.822-33.82v-7.801c7.928-2.534,15.632-5.73,23.032-9.561l5.523,5.522
	c13.362,13.378,34.807,13.054,47.836,0.004l16.299-16.297c13.029-13.015,13.398-34.457,0.005-47.838l-5.528-5.527
	c3.829-7.399,7.026-15.104,9.562-23.032h7.8c18.648,0,33.822-15.172,33.822-33.822v-23.058
	C383.4,252.044,368.229,236.872,349.578,236.872z"/>
<path fill="#FFFFFF" d="M258.076,283.614c-0.744,31.564-26.635,57.02-58.376,57.02c-32.208,0-58.411-26.203-58.411-58.411
	c0-32.208,26.203-58.411,58.411-58.411c0.157,0,0.311,0.011,0.467,0.012c2.094-2.663,4.22-5.3,6.399-7.895
	c3.458-4.117,7.193-7.894,11.001-11.59c-5.745-1.333-11.72-2.056-17.867-2.056c-44.079,0-79.938,35.861-79.938,79.938
	c0,44.077,35.86,79.938,79.938,79.938c44.078,0,79.938-35.861,79.938-79.938c0-6.021-0.688-11.884-1.962-17.525
	C270.032,269.912,262.343,275.941,258.076,283.614z"/>
<g>
	<path fill="#FFFFFF" d="M355.729,157.086l0.901-1.146c19.53,4.292,40.758-1.779,55.045-17.735
		c14.152-15.858,17.884-37.368,11.644-56.204l-30.58,34.174l-32.198-6.734l-10.244-31.255l30.558-34.192
		c-19.397-4.089-40.373,1.989-54.565,17.849c-14.874,16.611-18.233,39.548-10.683,59.015l-0.172,0.19L189.602,261.675
		c-4.967,5.563-7.249,12.603-6.866,19.515c0.384,6.912,3.43,13.646,8.985,18.653c11.093,9.966,28.174,9.019,38.177-2.118
		L355.729,157.086z M195.317,282.823c-0.314-5.671,4.047-10.546,9.737-10.862c5.71-0.316,10.564,4.046,10.879,9.717
		c0.317,5.711-4.025,10.573-9.736,10.891C200.509,292.896,195.634,288.542,195.317,282.823z"/>
</g>
</svg>
