<?xml version="1.0" encoding="utf-8"?>
<!-- Generator: Adobe Illustrator 16.0.0, SVG Export Plug-In . SVG Version: 6.00 Build 0)  -->
<!DOCTYPE svg PUBLIC "-//W3C//DTD SVG 1.1//EN" "http://www.w3.org/Graphics/SVG/1.1/DTD/svg11.dtd">
<svg version="1.1" id="Layer_1" xmlns="http://www.w3.org/2000/svg" xmlns:xlink="http://www.w3.org/1999/xlink" x="0px" y="0px"
	 width="384px" height="384px" viewBox="2863.188 -559.144 384 384" enable-background="new 2863.188 -559.144 384 384"
	 xml:space="preserve">
<g>
	<g>
		<path fill="#FFFFFF" d="M3175.532-455.429l0.744-0.877c16.1,3.287,33.596-1.363,45.375-13.587
			c11.666-12.15,14.742-28.63,9.598-43.062l-25.205,26.182l-26.543-5.158l-8.445-23.945l25.191-26.197
			c-15.992-3.132-33.281,1.523-44.982,13.674c-12.264,12.728-15.029,30.301-8.807,45.216l-0.141,0.146L3038.591-375.3
			c-4.096,4.261-5.975,9.657-5.66,14.953c0.316,5.295,2.826,10.453,7.406,14.292c9.145,7.636,23.225,6.909,31.471-1.625
			L3175.532-455.429z M3043.302-359.096c-0.258-4.346,3.336-8.08,8.027-8.323c4.707-0.243,8.709,3.099,8.969,7.445
			c0.258,4.374-3.316,8.101-8.027,8.345C3047.585-351.378,3043.567-354.714,3043.302-359.096z"/>
	</g>
	<path fill="#FFFFFF" d="M3178.983-439.221c3.078,0.443,1.041-0.014,4.236-0.014c3.129,0,6.201-0.25,9.205-0.719
		c5.326,8.781,9.693,18.063,12.908,27.755l24.373,1.683c8.893,0.616,15.838,7.285,16.211,15.496l1.738,38.301
		c0.375,8.212-5.943,15.4-14.748,16.71l-24.482,3.591c-2.914,12.002-7.58,23.56-13.73,34.472l16.816,18.172
		c5.82,6.264,5.689,15.522-0.334,21.607l-27.936,28.214c-6.023,6.019-15.951,6.987-23.162,2.127l-21.209-14.273
		c-11.402,6.551-23.627,11.72-36.475,15.371l-1.936,24.562c-0.66,8.251-7.846,14.701-16.691,15.049l-41.25,1.612
		c-8.846,0.348-16.588-5.52-18-13.691l-4.328-25.216c-12.238-2.735-24.055-6.836-35.236-12.249l-20.506,16.421
		c-6.746,5.404-16.719,5.28-23.273-0.309l-30.391-25.936c-6.486-5.594-7.527-14.809-2.293-21.503l16.031-20.484
		c-6.385-9.522-11.553-19.73-15.426-30.374l-26.943-1.84c-8.891-0.616-15.838-7.285-16.211-15.496l-1.738-38.303
		c-0.373-8.211,5.947-15.399,14.748-16.707l25.311-3.69c2.639-11.926,6.961-23.47,12.838-34.369l-16.74-18.047
		c-5.822-6.264-5.689-15.523,0.334-21.608l27.932-28.213c6.029-6.019,15.953-6.985,23.164-2.125l19.637,13.242
		c11.857-7.211,24.684-12.855,38.215-16.791l1.766-22.112c0.662-8.253,7.846-14.704,16.691-15.048l41.252-1.615
		c8.846-0.345,16.586,5.521,18,13.692l3.76,21.897c10.928,2.279,21.484,5.652,31.58,10.047c-0.217,2.037-0.322,4.095-0.287,6.172
		c0.064,3.223,0.426,6.37,1.057,9.423c0.436,2.089-48.203,53.222-51.879,54.077c-4.566,1.059-12.025-2.265-17.723-2.042
		c-37.592,1.47-66.914,31.086-65.33,65.985c1.582,34.9,33.486,62.125,71.078,60.656c37.59-1.469,66.912-31.089,65.33-65.991
		c-0.227-5.025,0.439-4.194-0.963-8.843"/>
	<path fill="#FFFFFF" d="M3166.27-439.401"/>
</g>
</svg>
