<?xml version="1.0" encoding="utf-8"?>
<!-- Generator: Adobe Illustrator 16.0.0, SVG Export Plug-In . SVG Version: 6.00 Build 0)  -->
<!DOCTYPE svg PUBLIC "-//W3C//DTD SVG 1.1//EN" "http://www.w3.org/Graphics/SVG/1.1/DTD/svg11.dtd">
<svg version="1.1" id="Layer_1" xmlns="http://www.w3.org/2000/svg" xmlns:xlink="http://www.w3.org/1999/xlink" x="0px" y="0px"
	 width="900px" height="900px" viewBox="0 0 900 900" enable-background="new 0 0 900 900" xml:space="preserve">
<g>
	<path fill-rule="evenodd" clip-rule="evenodd" fill="#090909" d="M639.358,534.442c9.718,23.474,13.494,48.024,14.896,73.296
		c0.538,9.704,0.899,19.498,1.882,29.173c0.938,9.266-3.039,14.254-10.816,17.916c-17.923,8.439-36.604,14.42-56.019,18.222
		c-28.984,5.675-58.15,9.272-87.723,10.635c-11.067,0.511-22.132,1.564-33.253,1.296c-3.619-5.53,0.668-9.725,2.764-13.963
		c18.482-37.357,37.253-74.573,55.862-111.869c3.374-6.763,7.668-12.988-1.982-18.826c-4.779-2.89-1.254-7.078,1.896-8.852
		c10.086-5.684,10.23-13.981,7.508-23.605c-1.565-5.538-2.082-11.327-2.985-17.014c-0.634-3.998-1.432-8.146,2.218-11.363
		c20.382,9.294,41.336,16.958,63.155,22.153c1.729-0.289,3.458-0.396,5.173,0.111c2.543,0.7,5.063,1.477,7.539,2.405
		c2.923,1.252,5.769,2.662,8.646,4.023c7.544,4.158,14.475,8.997,18.623,16.896C637.985,528.094,638.007,531.451,639.358,534.442z"
		/>
	<path fill-rule="evenodd" clip-rule="evenodd" fill="#090909" d="M282.523,564.896c3.685-9.829,6.097-20.04,10.434-29.725
		c6.963-15.547,18.824-24.273,34.427-29.728c23.886-8.35,48.496-14.75,71.345-25.957c3.651,3.215,2.854,7.365,2.22,11.363
		c-0.902,5.687-1.42,11.474-2.986,17.014c-2.721,9.622-2.562,17.89,7.508,23.604c3.733,2.118,6.523,6.45,1.179,9.586
		c-8.259,4.847-5.194,10.239-2.179,16.277c18.924,37.895,37.987,75.723,56.776,113.686c2.097,4.236,6.385,8.433,2.765,13.963
		c-31.553,0.065-62.804-3.002-94.052-7.426c-21.895-3.098-43.257-7.651-64.114-14.768c-27.469-9.369-28.605-10.943-29.7-38.524
		c-4.935-7.277-0.562-14.874-0.777-22.311c-0.706-7.054,0.947-13.867,2.09-20.736C278.11,575.454,278.051,569.47,282.523,564.896z"
		/>
	<path fill-rule="evenodd" clip-rule="evenodd" fill="#515151" d="M464.011,684.979c-2.48-9.269-7.783-17.235-11.977-25.698
		c-16.717-33.74-33.617-67.39-50.457-101.07c-6.617-13.231-6.626-13.228,5.988-20.664c-0.146-0.573-0.14-1.556-0.469-1.686
		c-14.925-5.856-16.109-16.898-12.09-30.45c2.488-8.388,4.163-17.044,3.722-25.924c8.763-4.857,17.526-9.72,26.289-14.578
		c1.827,0.182,3.124,1.16,4.066,2.678c4.862,15.747,7.383,32.049,11.343,48.015c4.397,18.682,7.889,37.564,12.379,56.214
		c4.681,19.81,8.439,39.832,13.231,60.644c5.574-21.716,9.477-42.929,14.158-63.974c4.413-17.5,7.458-35.292,11.686-52.822
		c4.044-15.92,6.48-32.218,11.256-47.975c1.289-2.082,2.979-3.401,5.603-2.903c7.111,6.896,16.643,9.697,24.868,14.702
		c-0.69,10.613,1.583,21.091,4.483,30.907c3.538,11.976-0.149,18.755-10.358,23.749c-1.155,0.566-2.15,1.461-3.221,2.204
		c0.465,0.893,0.6,1.657,1.029,1.901c11.866,6.723,11.868,6.713,5.693,19.063c-19.722,39.443-39.458,78.881-59.131,118.349
		c-1.49,2.991-2.527,6.207-3.776,9.32C466.888,684.979,465.449,684.979,464.011,684.979z"/>
	<path fill-rule="evenodd" clip-rule="evenodd" fill="#D32627" d="M178.114,256.768c-14.944,0-29.924,0.635-44.821-0.213
		c-10.757-0.612-19.117,2.266-25.671,10.749c-1.177,1.523-2.93,2.602-5.229,4.584c-2.234-5.273-1.768-9.594-0.357-14.017
		c-15.057-2.984-15.405-3.418-15.406-19.557c-0.001-23.096-0.049-46.191,0.02-69.287c0.037-12.335,1.983-14.278,13.832-14.282
		c44.153-0.013,88.307,0.183,132.458-0.15c9.734-0.074,13.407,3.486,12.978,13.122c-0.528,11.863-0.125,23.769-0.125,35.656
		c-3.407,4.374-8.383,3.762-12.993,3.861c-11.107,0.24-22.219,0.021-33.329,0.105c-16.732,0.127-17.277,0.735-17.413,17.882
		c-0.051,6.391,0.348,12.796-0.482,19.174C181.695,248.88,182.381,253.521,178.114,256.768z"/>
	<path fill-rule="evenodd" clip-rule="evenodd" fill="#090909" d="M329.752,217.883c7.865-7.916,18.93-7.123,28.505-9.605
		c35.548-9.221,71.474-16.97,107.136-25.775c6.64-1.639,12.491-0.791,18.75,0.737c42.161,10.293,84.347,20.488,126.557,30.577
		c2.536,0.606,4.778,0.626,4.129,4.07c-2.555,4.13-6.986,5.059-11.13,6.204c-11.898,3.292-22.947,9.535-35.577,10.315
		c-24.375-6.773-49.25-11.444-73.87-17.202c-5.655-1.322-11.006-3.189-16.275-5.542c-6.637-2.967-13.39-3.911-20.346-0.669
		c0.966,3.748,3.796,3.611,5.847,3.472c24.832-1.696,47.726,7.662,71.438,12.311c6.29,1.233,12.606,2.329,18.761,4.189
		c2.905,0.879,6.122,1.204,6.858,5.01c-1.9,4.361-6.229,4.973-9.995,6.246c-25.056,8.475-50.22,16.63-75.233,25.23
		c-6.026,2.071-11.834,2.269-17.881,0.123c-40.562-14.402-80.504-30.453-120.857-45.409
		C333.964,221.201,331.622,219.95,329.752,217.883z"/>
	<path fill-rule="evenodd" clip-rule="evenodd" fill="#E9BD94" d="M508.739,464.785c-1.28,0.779-2.562,1.559-3.842,2.336
		c-1.478,2.591-3.609,4.033-6.685,3.84c-21.059-7.048-43.07-11.127-63.516-20.148c-3.419-1.506-6.832-2.957-8.961-6.276
		c-1.538-7.266-8.658-10.075-12.454-15.585c-10.112-14.681-18.215-30.243-22.303-47.712c-1.09-9.325-4.563-18.196-5.006-27.666
		c-0.729-15.615,0.029-30.92,7.717-45.082c2.882-3.084,6.656-4.545,10.586-5.555c17.345-4.463,34.945-7.044,52.897-6.744
		c4.036,0.067,8.125,0.204,11.445,3.067c3.899,4.987,3.097,10.922,3.109,16.603c0.093,40.648,0.01,81.299,0.066,121.946
		c0.019,14.327,2.668,15.742,16.124,10.24c6.389-2.612,11.348-9.009,19.311-7.576C505.877,448.692,510.927,456.516,508.739,464.785z
		"/>
	<path fill-rule="evenodd" clip-rule="evenodd" fill="#FFFFFF" d="M709.024,301.659c-45.951,0-73.5-29.808-73.492-79.519
		c0.008-38.648,33.527-66.972,78.496-67.551c32.559-0.418,71.508,31.357,69.043,78.702
		C781.29,267.517,747.749,305.872,709.024,301.659z"/>
	<path fill-rule="evenodd" clip-rule="evenodd" fill="#F6C799" d="M507.229,440.473c-9.228,6.255-18.406,12.04-29.717,14.724
		c-9.316,2.21-9.479-1.613-9.383-8.471c0.24-16.991,0.067-33.991,0.081-50.987c0.026-31.952,0.067-63.903,0.104-95.856
		c0.387-0.469,0.774-0.938,1.157-1.413c3.658-2.381,7.781-2.388,11.832-1.917c15.862,1.837,31.749,3.603,47.27,7.547
		c5.244,1.334,10.734,2.498,13.383,8.197c5.724,20.927,4.035,41.859,0.041,62.79C537.067,400.423,526.905,422.977,507.229,440.473z"
		/>
	<path fill-rule="evenodd" clip-rule="evenodd" fill="#FFFFFF" d="M427.109,838.317c-33.826,1.239-59.994-25.678-60.337-58.834
		c-0.328-31.79,18.937-60.597,61.976-61.266c33.142-0.517,59.499,25.06,59.444,60.847
		C488.143,811.303,462.422,839.746,427.109,838.317z"/>
	<path fill-rule="evenodd" clip-rule="evenodd" fill="#E9F0F5" d="M178.794,244.531c-0.113-10.174-0.122-20.351-0.375-30.521
		c-0.181-7.261,3.156-10.369,10.376-10.351c18.999,0.049,37.997-0.171,56.996-0.285c17.639,0.114,35.279,0.315,52.918,0.296
		c6.533-0.007,10.352,2.417,10.34,9.406c-0.037,21.041-0.011,42.081-0.135,63.12c-0.006,1.09-1.176,2.172-1.804,3.257
		c-5.611-6.002-3.523-13.511-3.458-20.362c0.08-8.385-3.235-11.625-11.475-11.145c-5.715,0.334-11.533,0.526-17.191-0.904
		c-5.471-2.946-10.853-7.428-16.948-1.068c-1.821,0.771-3.701,0.903-5.625,0.541c-5.121-3.062-10.244-6.071-15.566-0.313
		c-2.886,1.114-5.767,1.107-8.641-0.009c-5.664-6.259-10.747-1.657-15.959,0.902C200.976,247.656,189.503,251.01,178.794,244.531z"
		/>
	<path fill-rule="evenodd" clip-rule="evenodd" fill="#FFFFFF" d="M227.767,244.532c3.174,0,6.349,0,9.523,0
		c4.773,4.66,9.581,3.046,14.396,0.076c2.003-0.026,4.006-0.052,6.01-0.078c4.987,4.108,9.975,4.043,14.963,0.002
		c7.803-0.003,15.642,0.458,23.4-0.135c8.195-0.626,11.833,1.833,11.099,10.643c-0.674,8.083-0.08,16.271-0.046,24.413
		c0.149,2.235-0.902,4.978-2.608,4.974c-8.582-0.01-8.374,5.518-7.157,15.201c-14.629-19.357-33.103-13.786-50.139-14.191
		c-18.651-0.445-37.333-0.503-55.977,0.066c-9.442,0.288-12.662-4.051-12.782-12.472c-0.077-5.423-0.22-10.843-0.334-16.264
		c0.227-4.079,0.454-8.157,0.68-12.236c12.017,0,24.033,0.001,36.05,0.001C219.151,248.463,223.459,248.463,227.767,244.532z"/>
	<path fill-rule="evenodd" clip-rule="evenodd" fill="#090909" d="M468.314,299.882c-25.049-1.098-49.667,0.954-73.318,10.049
		c-5.685,3.866-11.116,8.504-18.832,6.151c-3.413,1.248-6.827,2.496-13.12,4.797c6.784-27.333,13.107-52.805,19.429-78.275
		c2.764-2.725,5.705-1.25,8.485-0.192c23.968,9.114,47.967,18.145,72.16,26.646c2.961,1.04,5.623,2.318,7.048,5.342
		c1.804,8.521,3.748,17.052-2.099,24.919L468.314,299.882z"/>
	<path fill-rule="evenodd" clip-rule="evenodd" fill="#FFFFFF" d="M786.192,624.063c0,17.003,0,34.009,0,51.013
		c-7.206,1.877-9.018,7.568-9.864,13.943c-23.085,0.113-46.173,0.251-69.258,0.293c-1.901,0.004-5.417-0.507-5.458-1.009
		c-0.553-6.486-2.495-7.371-6.812-2.271c-1.303,1.54-2.342,0.02-3.141-0.851c-1.963-2.137-0.586-4.396,1.132-4.994
		c11.496-4.007,7.718-13.576,7.971-21.509c0.369-11.53,0.293-23.076,0.407-34.615c3.337-3.599,7.811-3.679,12.185-3.719
		c20.217-0.188,40.435-0.188,60.65,0C778.379,620.384,782.853,620.464,786.192,624.063z"/>
	<path fill-rule="evenodd" clip-rule="evenodd" fill="#FFFFFF" d="M178.452,552.305c0.669,0.096,1.337,0.264,2.009,0.283
		c15.857,0.458,15.857,0.454,16.698,16.382c2.115,4.071,3.219,8.319,2.255,12.927c-7.621,14.501-19.833,24.63-32.663,34.19
		c-7.766,1.597-15.537,1.583-23.315,0.096c-12.954-9.443-25.076-19.707-32.843-34.175c-1.003-4.643,0.083-8.931,2.225-13.038
		c0.83-15.721,0.83-15.721,18.707-16.665C147.167,546.984,162.81,546.984,178.452,552.305z"/>
	<path fill-rule="evenodd" clip-rule="evenodd" fill="#184169" d="M551.592,69.039c26.854-0.633,46.577,19.934,47.087,46.051
		c0.469,23.976-22.075,46.827-45.884,45.491c-25.082-1.407-44.801-17.188-45.661-45.502
		C506.363,89.664,526.874,69.076,551.592,69.039z"/>
	<path fill-rule="evenodd" clip-rule="evenodd" fill="#21639F" d="M141.976,613.752c8.674,0,17.349,0.002,26.023,0.004
		c12.944,10.155,27.788,18.389,34.888,34.46c-31.932,0-63.863,0-95.794,0c-0.407-1.369-0.423-3.057,0.514-3.848
		C119.331,634.46,128.218,621.364,141.976,613.752z"/>
	<path fill-rule="evenodd" clip-rule="evenodd" fill="#D32627" d="M773.312,350.989c4.123,2.896,5.613,0.373,6.984-1.994
		c3.788-6.538,8.235-6.617,12.153-0.601c2.25,3.46,3.882,5.412,7.704,2.47c0.229-0.177,0.649-0.124,0.982-0.144
		c4.099-0.237,7.811,4.888,7.391,5.311c-8.423,8.446,16.234,12.758,2.587,21.227c-3.96,2.455-1.618,6.044-2.079,9.091
		c-0.813,5.385-1.584,10.398-9.112,7.645c-3.208-1.176-4.014,0.188-5.594,3.268c-3.055,5.956-7.688,7.861-12.023,0.354
		c-1.545-2.67-3.799-3.158-7.2-2.624c-6.9,1.084-12.482-0.189-9.187-9.633c0.574-1.644,1.182-4.489-0.994-5.537
		c-8.606-4.138-6.827-8.727-1.019-13.813c1.539-1.35,2.179-2.606,1.369-5.169C762.836,353.111,766.931,350.657,773.312,350.989z"/>
	<path fill-rule="evenodd" clip-rule="evenodd" fill="#184169" d="M323.34,74.823c-0.019-15.986-0.019-15.986,16.169-15.986
		c24.435,0,48.872,0.213,73.302-0.137c6.673-0.096,8.654,1.951,8.602,8.609c-0.289,35.97-0.347,71.946,0.021,107.916
		c0.085,8.349-3.169,10.375-10.838,10.254c-23.071-0.361-46.152-0.1-69.229-0.138c-19.748-0.034-18.02,1.96-18.025-18.018
		c1.625-1.513,3.285-1.46,4.981-0.13c2.928,6.173,7.656,8.6,14.618,8.504c19.701-0.27,39.411,0.046,59.115-0.154
		c10.548-0.107,11.395-0.969,11.46-11.968c0.166-28.199,0.201-56.4-0.018-84.599c-0.088-11.232-1.124-12.228-12.33-12.364
		c-19.023-0.23-38.056,0.121-57.076-0.163c-7.191-0.108-12.563,1.885-15.745,8.561C326.626,76.288,324.951,76.346,323.34,74.823z"/>
	<path fill-rule="evenodd" clip-rule="evenodd" fill="#FFFFFF" d="M229.467,474.765c7.395,1.734,6.667-2.526,4.626-8.371
		c5.712,3.334,10.408,6.076,15.788,9.217c-3.86,5.438-10.968,4.97-15.029,10.662c3.344-9.116-1.235-9.287-7.138-9.212
		c-18.014,0.231-36.043-0.269-54.045,0.255c-7.322,0.214-10.016-1.293-9.713-9.306c0.681-17.99-0.138-36.036,0.403-54.038
		c0.191-6.337-1.31-8.48-8.754-5.592c3.792-6.454,6.716-11.43,9.781-16.646c4.018,4.403,5.666,9.92,8.289,14.951
		c-2.283,2.505-4.844-0.006-7.463,0.105c0,20.688-0.028,41.081,0.029,61.473c0.009,3.143-1.206,7.22,4.547,6.833
		c5.16-0.347,3.45-4.185,3.509-6.803c0.195-8.497,0.27-17.002-0.001-25.493c-0.146-4.569,0.868-6.689,6.081-6.632
		c4.89,0.054,6.542,1.505,6.328,6.396c-0.344,7.803-0.336,15.646,0.019,23.447c0.166,3.648-2.792,9.414,5.291,9.185
		c7.326-0.205,4.61-5.418,4.69-8.752c0.288-11.893,0.106-23.793,0.12-35.691c0.004-3.325-0.752-6.642,4.752-6.809
		c5.998-0.184,5.484,3.296,5.463,7.153c-0.058,10.877,0.774,21.83-0.244,32.613c-0.999,10.559,3.181,13.151,12.468,11.055
		C222.665,472.171,226.067,472.171,229.467,474.765z"/>
	<path fill-rule="evenodd" clip-rule="evenodd" fill="#F5C799" d="M425.736,444.536c23.728,10.39,49.473,14.764,73.377,24.621
		c-8.811,14.778-32.509,22.5-46.643,14.399c-8.651-4.958-18.811-7.847-25.133-16.434c-0.773-0.739-1.547-1.477-2.32-2.214
		C425.257,458.118,425.497,451.327,425.736,444.536z"/>
	<path fill-rule="evenodd" clip-rule="evenodd" fill="#FFFFFF" d="M260.195,715.75c13.902,0.046,27.811,0.373,41.702,0.004
		c5.912-0.157,7.388,1.88,7.254,7.493c-0.664,27.916,3.712,22.91-22.858,23.185c-27.353,0.281-27.355,0.063-25.92-30.896
		L260.195,715.75z"/>
	<path fill-rule="evenodd" clip-rule="evenodd" fill="#146047" d="M278.183,601.419c1.654,7.821-2.465,15.129-2.038,22.843
		c-2.108-0.279-4.415-0.975-4.976-2.993c-1.432-5.159-4.134-5.726-9.079-4.531c-7.481,1.809-11.891-2.838-9.955-10.189
		c1.013-3.846-0.342-5.288-3.34-7.06c-7.156-4.229-8.055-9.21-0.913-14.551c3.457-2.583,3.352-5.659,2.498-9.796
		c-1.366-6.62,2.391-10.912,9.115-9.813c5.322,0.869,8.906,1.16,11.402-4.615c1.216-2.812,5.21-3.587,7.982-3.196
		c3.801,0.536,3.63,4.284,3.643,7.379c0.969,5.745-1.829,10.966-2.299,16.514c-1.008,0.854-2.072,1.599-3.265,2.206
		c-8.914,4.533-9.372,7.348-2.35,14.377C275.773,599.159,276.965,600.306,278.183,601.419z"/>
	<path fill-rule="evenodd" clip-rule="evenodd" fill="#184169" d="M141.976,613.752c-10.118,13.017-23.43,22.801-34.883,34.466
		c-2.548-0.955-2.065-3.215-2.06-5.123c0.064-21.313,0.188-42.624,0.297-63.936c4.782-2.79,5.823,1.232,7.49,4.114
		C122.539,593.433,132.257,603.593,141.976,613.752z"/>
	<path fill-rule="evenodd" clip-rule="evenodd" fill="#184169" d="M202.887,648.216c-10.051-13.084-25.331-20.878-34.888-34.462
		c9.719-10.161,19.439-20.323,29.158-30.486c1.669-2.878,2.711-6.898,7.489-4.108c0.109,21.31,0.232,42.623,0.297,63.934
		C204.949,645.001,205.431,647.261,202.887,648.216z"/>
	<path fill-rule="evenodd" clip-rule="evenodd" fill="#FFFFFF" d="M760.316,519.983c4.688-11.534,9.644-22.964,13.957-34.635
		c2.579-6.973,5.416-14.097-2.572-20.457c-3.677-2.928,0.233-5.783,3.146-5.893c10.818-0.402,21.661-0.136,32.493-0.212
		c3.342-0.023,4.802,2.355,3.317,4.416c-8.354,11.598-1.883,22.918,0.044,34.335c-2.517,1.267-4.798,0.276-7.086-0.708
		c-14.072-5.219-23.713-1.339-29.602,11.927c-1.505,3.385-2.174,7.203-5.073,9.888C766.285,520.512,763.499,521.546,760.316,519.983
		z"/>
	<path fill-rule="evenodd" clip-rule="evenodd" fill="#515151" d="M468.198,273.128c-26.957-9.763-53.911-19.532-80.877-29.267
		c-1.564-0.564-3.23-0.847-4.849-1.26c-15.577-6.08-31.104-12.295-46.77-18.138c-3.449-1.285-6.459-2.107-5.952-6.582
		c20.6,7.351,41.243,14.577,61.783,22.083c22.162,8.099,44.259,16.376,66.313,24.763c5.669,2.155,10.896,1.979,16.629,0.035
		c28.42-9.639,56.941-18.979,85.426-28.424c3.794-1.858,5.103-0.123,5.101,3.521c-2.682,4.963-7.915,5.582-12.481,7.337
		c-23.795,8.022-47.665,15.837-71.472,23.844C476.905,272.433,472.795,274.373,468.198,273.128z"/>
	<path fill-rule="evenodd" clip-rule="evenodd" fill="#FFFFFF" d="M813.385,501.646c8.421,14.965,16.24,30.197,22.798,46.119
		c3.826,9.298-1.574,12.58-8.287,12.759c-24.084,0.645-48.201,0.545-72.295,0.106c-8.487-0.155-12.806-6.919-9.278-14.846
		c3.27-7.354,5.86-15.309,11.633-21.388c2.964,1.764,4.14,4.438,3.996,7.789c-0.492,5.333-4.739,9.627-4.203,15.244
		c1.335,4.195,4.739,4.187,8.23,4.209c15.541,0.096,31.084,0.002,46.619-0.323c10.673-0.223,11.841-2.287,8.871-13.299
		c-3.523-9.713-10.129-18.072-12.454-28.318C809.021,506.229,809.875,503.213,813.385,501.646z"/>
	<path fill-rule="evenodd" clip-rule="evenodd" fill="#616262" d="M564.042,240.594c-0.028-2.734-1.451-4.109-4.139-4.255
		c-18.913-6.7-38.854-9.23-58.147-14.347c-13.005-3.45-25.996-5.744-39.483-4.05c-1.634,0.205-3.554,0.156-4.986-0.522
		c-2.611-1.237-6.474-1.638-6.746-5.304c-0.295-3.955,3.717-4.962,6.266-5.558c6.255-1.463,13.475-2.735,18.964,0.243
		c19.978,10.84,42.511,11.486,63.7,17.352c9.615,2.66,19.243,5.271,28.866,7.902c1.509,2.183,1.547,4.349-0.069,6.495
		c-0.024,16.842-0.048,33.685-0.072,50.525c-1.817,1.529-3.547,1.473-5.188-0.279C560.961,272.682,556.922,256.517,564.042,240.594z
		"/>
	<path fill-rule="evenodd" clip-rule="evenodd" fill="#F9F9FA" d="M609.185,756.066c-0.57,11.578-7.945,14.407-13.584,16.87
		c-4.063,1.775-12.184,1.484-14.334-1.205c-3.515-4.406-8.553-8.158-10.617-13.193c-2.475-6.047,12.226-26.38,14.838-23.748
		c5.389,5.435,13.49-4.533,18.245,5.988C606.58,747.075,613.545,750.878,609.185,756.066z"/>
	<path fill-rule="evenodd" clip-rule="evenodd" fill="#146047" d="M94.224,385.177c-3.419-5.874-11.674,2.372-13.67-2.606
		c-2.244-5.599-9.03-7.318-9.443-13.163c-0.548-7.745,10.259-24.188,14.72-22.285c5.311,2.267,12.169-2.479,14.731,1.983
		c2.814,4.898,8.833,7.396,9.721,12.921C111.582,370.104,101.109,385.138,94.224,385.177z"/>
	<path fill-rule="evenodd" clip-rule="evenodd" fill="#D32627" d="M786.192,624.063c-28.343,0-56.683,0-85.022,0
		c-1.865-7.652,0.265-10.864,8.959-10.412c13.186,0.688,26.445-0.019,39.673-0.13c0.679-0.609,1.36-0.609,2.04,0
		c8.471,0.111,16.998,0.881,25.397,0.16C785.953,612.931,788.047,616.426,786.192,624.063z"/>
	<path fill-rule="evenodd" clip-rule="evenodd" fill="#FFFFFF" d="M166.601,705.684c-11.901,1.427-22.393-10.408-22.727-19.365
		c-0.223-5.962,14.057-21.292,19.523-21.401c12.279-0.243,23.235,9.861,23.214,21.411
		C186.59,698.02,178.758,705.596,166.601,705.684z"/>
	<path fill-rule="evenodd" clip-rule="evenodd" fill="#272626" d="M376.164,316.082c6.304-1.969,11.847-6.27,18.832-6.151
		c-6.458,20.451-8.263,41.058-2.698,62.083c0.758,2.861,2,6.584-1.319,9.226c-2.93-5.454-5.861-10.908-8.794-16.358
		c-8.35-11.9-8.949-25.026-6.118-38.695C376.1,322.817,376.132,319.45,376.164,316.082z"/>
	<path fill-rule="evenodd" clip-rule="evenodd" fill="#D32627" d="M229.467,474.765c-3.4,0-6.802,0-10.203,0
		c0.001-17.328,0.056-34.654-0.039-51.981c-0.022-4.059-0.112-7.191,5.655-6.986c5.651,0.201,4.551,3.802,4.56,6.986
		C229.493,440.11,229.466,457.437,229.467,474.765z"/>
	<path fill-rule="evenodd" clip-rule="evenodd" fill="#FFFFFF" d="M564.115,289.076c1.359,0,2.721,0,4.079,0
		c4.483,2.556,6.843,6.161,6.182,11.559c-0.239,1.968-0.323,4.265,0.458,5.985c1.905,4.188,8.434,8.093,3.97,12.525
		c-2.457,2.438-9.035,0.718-13.754,0.879c-3.041,0.105-6.083,0.222-9.124,0.333c-6.955,1.273-5.287-3.321-4.851-7.093
		c2.892-8.295,0.504-18.751,9.934-24.393C562.075,288.448,563.113,288.52,564.115,289.076z"/>
	<path fill-rule="evenodd" clip-rule="evenodd" fill="#146047" d="M769.706,401.089c8.669-2.361,12.582,4.157,14.11,9.966
		c1.758,6.675-7.46,16.563-13.155,16.312c-7.515-0.33-16.145-7.373-15.581-12.715C756.22,403.841,759.701,400.614,769.706,401.089z"
		/>
	<path fill-rule="evenodd" clip-rule="evenodd" fill="#272626" d="M553.572,313.933c-0.992,2.792-3.996,6.319,2.352,6.424
		c-0.566,1.266-1.132,2.53-1.698,3.794c2.987,13.671,1.451,26.586-6.426,38.44c-1.935,4.166-3.868,8.33-5.803,12.495
		c-0.985-21.053,0.78-42.194-2.032-63.188C545.199,307.913,549.592,309.548,553.572,313.933z"/>
	<path fill-rule="evenodd" clip-rule="evenodd" fill="#146047" d="M601.042,503.42c-1.737,0.151-3.371,0.06-4.28-1.779
		c6.771-15.158,19.513-23.029,35.255-22.581c5.647,0.161,7.8,1.915,7.678,7.66c-0.336,15.903-0.253,31.814-0.336,47.723
		c-2.177-2.352-3.619-5.043-3.828-8.304c-5.136-8.354-2.242-17.721-3.322-26.589c-0.322-2.65-0.096-5.362-0.646-8.015
		c-0.558-2.674-2.136-4.101-4.858-4.188c-2.096-0.065-4.788,0.243-5.002,2.413C620.403,503,610.479,502.759,601.042,503.42z"/>
	<path fill-rule="evenodd" clip-rule="evenodd" fill="#21639F" d="M178.452,552.305c-15.643,0-31.285,0-46.928,0
		c6.621-6.14,13.233-12.289,19.868-18.412c2.369-2.185,5.082-2.399,7.141,0.04C164.419,540.898,173.417,544.454,178.452,552.305z"/>
	<path fill-rule="evenodd" clip-rule="evenodd" fill="#FFFFFF" d="M179.786,323.994c-2.544,0.051-3.21-1.225-3.369-3.138
		c-0.153-1.856,0.549-4.157-2.324-4.8c-2.283-0.511-6.019,1.096-5.715-3.521c0.246-3.753,3.351-2.373,5.396-2.792
		c4.214-0.861,2.193-4.235,2.608-6.553c0.313-1.742,0.423-3.284,2.676-3.47c2.748-0.227,3.661,1.313,3.422,3.653
		c-0.453,4.472,0.669,7.194,5.932,6.512c1.979-0.256,4.129-0.102,4.247,2.841c0.115,2.89-1.788,3.291-3.944,3.174
		c-3.721-0.203-6.796,0.086-6.281,5.146C182.629,322.955,181.579,324.233,179.786,323.994z"/>
	<path fill-rule="evenodd" clip-rule="evenodd" fill="#515151" d="M568.267,238.551c0.021-2.164,0.046-4.329,0.067-6.494
		c16.165-2.542,30.819-10.026,46.494-14.17c1.471,5.183-2.286,6.112-5.854,7.28C595.399,229.609,581.833,234.087,568.267,238.551z"
		/>
	<path fill-rule="evenodd" clip-rule="evenodd" fill="#DBB89C" d="M376.066,326.186c0.044,13.213,3.574,25.875,6.119,38.694
		C371.036,358.513,368.062,339.707,376.066,326.186z"/>
	<path fill-rule="evenodd" clip-rule="evenodd" fill="#EED3B7" d="M547.8,362.591c1.879-12.855,6.916-25.186,6.424-38.439
		C561.487,340.78,559.287,353.941,547.8,362.591z"/>
	<path fill-rule="evenodd" clip-rule="evenodd" fill="#FFFFFF" d="M700.663,719.005c0.561-6.578,2.093-10.428,3.914-14.306
		c1.054-2.244,0.546-5.411-1.959-6.042c-3.344-0.848-3.089,1.626-2.716,4.254c0.173,1.229-1.645,2.947-3.617,2.401
		c-2.281-0.63-1.454-2.72-1.512-4.24c-0.122-3.161,1.504-5.374,4.652-5.425c3.553-0.058,7.881-1.763,10.392,1.965
		c2.139,3.177,2.158,7.063-0.225,10.358C707.289,711.159,704.654,714.108,700.663,719.005z"/>
	<path fill-rule="evenodd" clip-rule="evenodd" fill="#FFFFFF" d="M463.947,56.12c-2.943,4.647-6.236,8.892-2.9,15.398
		c-3.673-6.555-8.474-7.049-14.234-4.089c-0.058-3.957,2.852-4.934,4.325-6.852c2.034-2.648-1.687-4.113-0.839-7.569
		C454.244,56.6,458.479,58.102,463.947,56.12z"/>
	<path fill-rule="evenodd" clip-rule="evenodd" fill="#FFFFFF" d="M92.828,414.878c5.992,2.884,9.43,10.607,16.161,3.246
		c-3.002,5.161-9.991,8.414-2.175,16.092c-6.561-1.532-8.705-10.109-15.343-3.653C94.857,425.675,95.947,421.138,92.828,414.878z"/>
	<path fill-rule="evenodd" clip-rule="evenodd" fill="#184169" d="M760.339,532.2c-0.795-2.6-1.59-5.202-2.384-7.805
		c1.985-0.829,1.947-2.742,2.361-4.412c2.238-1.925,4.971-2.168,7.74-2.277c6.881,0.444,8.461,4.899,7.046,10.485
		C773.624,534.032,767.927,535.343,760.339,532.2z"/>
	<path fill-rule="evenodd" clip-rule="evenodd" fill="#D32627" d="M776.328,689.019c-4.352-13.938-4.352-13.938,9.864-13.943
		C783.433,680.097,783.159,686.878,776.328,689.019z"/>
	<path fill-rule="evenodd" clip-rule="evenodd" fill="#FFFFFF" d="M513.137,729.261c-4.325,3.376-4.538,7.704-4.159,12.938
		c-3.903-2.515-6.897-5.593-13.532-2.27c4.345-5.617,7.444-8.836,4.238-14.017C503.68,730.111,507.661,731.618,513.137,729.261z"/>
	<path fill-rule="evenodd" clip-rule="evenodd" fill="#184169" d="M813.385,501.646c-0.901,2.702-1.802,5.404-2.702,8.106
		c-4.004,3.625-7.983,3.049-11.661-0.363c-2.708-2.51-3.303-5.878-2.25-9.317c1.218-3.979,3.529-6.563,8.229-4.814
		c1.901,0.762,3.803,1.519,5.701,2.28C811.597,498.908,812.49,500.275,813.385,501.646z"/>
	<path fill-rule="evenodd" clip-rule="evenodd" fill="#D8D9D8" d="M325.134,126.256c-1.403-2.692-6.213-4.677-1.78-8.58
		c1.348-1.041,2.79-1.888,4.5-2.192c4.433-0.177,9.571-0.027,9.781,5.48c0.212,5.546-5.277,5.674-9.42,6.458
		C327.057,127.385,326.029,126.994,325.134,126.256z"/>
	<path fill-rule="evenodd" clip-rule="evenodd" fill="#D8D9D8" d="M325.135,93.609c-1.404-2.692-6.214-4.677-1.781-8.581
		c1.246-0.949,2.563-1.751,4.146-2.014c2.134-0.264,4.159,0.068,6.058,1.102c2.97,2.308,3.512,4.917,0.963,7.904
		c-1.949,1.685-4.289,2.401-6.796,2.695C326.729,94.667,325.871,94.279,325.135,93.609z"/>
	<path fill-rule="evenodd" clip-rule="evenodd" fill="#D8D9D8" d="M325.135,93.609c0.715-0.028,1.43-0.056,2.145-0.084
		c4.203,0.025,8.896,0.284,9.016,5.643c0.112,5.016-4.386,5.027-8.176,5.075c-1.846-0.186-3.347-1.115-4.766-2.221
		C317.972,97.952,325.662,96.651,325.135,93.609z"/>
	<path fill-rule="evenodd" clip-rule="evenodd" fill="#D8D9D8" d="M325.134,126.256c0.715-0.028,1.43-0.055,2.145-0.083
		c2.439,0.104,4.97-0.243,7.104,1.424c2.68,2.904,2.224,5.52-0.729,7.912c-1.897,1.083-3.942,1.427-6.1,1.208
		c-1.609-0.246-2.938-1.078-4.2-2.047C317.937,130.595,323.699,128.883,325.134,126.256z"/>
	<path fill-rule="evenodd" clip-rule="evenodd" fill="#D8D9D8" d="M327.22,167.038c-1.293,0.095-2.586,0.189-3.88,0.284
		c-2.968-2.271-2.985-4.536,0.014-6.794c1.285-0.979,2.652-1.783,4.289-2.032c2.244-0.238,4.35,0.157,6.277,1.377
		c3.07,2.952,3.024,5.709-0.532,8.238C331.115,169.016,329.073,168.565,327.22,167.038z"/>
	<path fill-rule="evenodd" clip-rule="evenodd" fill="#D8D9D8" d="M323.34,74.823c1.293,0.095,2.587,0.189,3.88,0.285
		c3.032-2.288,6.128-2.712,9.114-0.029c1.271,1.141,2.154,2.67,1.21,4.455c-2.309,4.364-6.092,3.172-9.722,2.483
		c-1.73-0.369-3.12-1.369-4.469-2.44C320.661,78,320.671,76.415,323.34,74.823z"/>
	<path fill-rule="evenodd" clip-rule="evenodd" fill="#FFFFFF" d="M610.221,138.886c2.271,2.707,7.909,1.501,8.501,6.482
		c0.117,0.994-1.355,3.418-3.455,2.144c-2.906-1.764-7.537-1.408-8.19-6.031C606.823,139.692,607.515,138.071,610.221,138.886z"/>
	<path fill-rule="evenodd" clip-rule="evenodd" fill="#D8D9D8" d="M323.354,144.874c-2.692-1.583-2.692-3.167,0-4.751
		c1.351-1.043,2.797-1.888,4.511-2.191c1.349,0.15-0.372-0.203,0.979-0.132c4.462,0.235,9.665,0.893,8.68,6.534
		c-0.878,5.026-5.906,3.927-9.841,2.959C326.035,146.854,324.663,145.919,323.354,144.874z"/>
	<path fill-rule="evenodd" clip-rule="evenodd" fill="#21639F" d="M112.82,583.273c-2.548-1.279-4.099-4.374-7.49-4.114
		c-0.447-5.561,4.354-7.262,7.487-10.189C112.818,573.738,112.819,578.505,112.82,583.273z"/>
	<path fill-rule="evenodd" clip-rule="evenodd" fill="#21639F" d="M204.646,579.159c-3.39-0.26-4.939,2.837-7.489,4.108
		c0.001-4.767,0.002-9.533,0.002-14.298C200.292,571.897,205.094,573.599,204.646,579.159z"/>
	<path fill-rule="evenodd" clip-rule="evenodd" fill="#FFFFFF" d="M675.001,703.022c-3.463,3.354-4.312,8.848-10.396,7.974
		c-0.701-0.102-2.928-1.57-1.584-2.82C666.074,705.333,667.947,699.496,675.001,703.022z"/>
	<path fill-rule="evenodd" clip-rule="evenodd" fill="#D8D9D8" d="M323.354,155.076c-2.692-1.583-2.692-3.167,0-4.751
		c1.349-1.042,2.792-1.885,4.511-2.156c1.342,0.207-0.324-0.269,1.017-0.043c3.913,0.662,9.469,0.407,8.718,6.011
		c-0.759,5.649-5.929,4.074-9.919,3.349C326.032,157.055,324.661,156.121,323.354,155.076z"/>
	<path fill-rule="evenodd" clip-rule="evenodd" fill="#D8D9D8" d="M323.354,112.225c-2.692-1.583-2.692-3.167,0-4.751
		c1.35-1.042,2.796-1.887,4.51-2.189c1.349,0.153-0.373-0.208,0.978-0.13c4.44,0.255,9.658,0.882,8.688,6.522
		c-0.878,5.108-5.965,3.743-9.848,2.959C326.033,114.204,324.663,113.27,323.354,112.225z"/>
	<path fill-rule="evenodd" clip-rule="evenodd" fill="#FFFFFF" d="M201.716,668.591c-2.366-3.08-6.96-4.478-6.861-9.411
		c0.035-1.71,1.3-2.888,2.466-2.17c3.112,1.913,6.296,4.145,7.383,7.856C205.211,666.597,203.216,667.603,201.716,668.591z"/>
	<path fill-rule="evenodd" clip-rule="evenodd" fill="#FFFFFF" d="M741.265,315.785c-5.071,2.864-10.292,2.514-17.151,1.117
		C730.408,312.051,735.931,314.333,741.265,315.785z"/>
	<path fill-rule="evenodd" clip-rule="evenodd" fill="#FFFFFF" d="M725.739,322.55c5.082-3.473,10.309-2.209,15.552-1.386
		C736.438,325.934,730.965,323.246,725.739,322.55z"/>
	<path fill-rule="evenodd" clip-rule="evenodd" fill="#FFFFFF" d="M761.889,294.666c1.182,1.693,1.854,2.37,2.188,3.185
		c1.255,3.063,4.687,5.567,2.794,9.395c-0.262,0.523-3.152,0.634-3.569,0.047C760.893,303.884,758.269,300.304,761.889,294.666z"/>
	<path fill-rule="evenodd" clip-rule="evenodd" fill="#FFFFFF" d="M165.425,276.794c-2.297,2.785-1.552,7.662-6.145,8.093
		c-0.986,0.093-3.469-1.392-2.217-3.394c1.762-2.816,1.304-7.519,5.878-7.957C164.026,273.432,165.883,274.873,165.425,276.794z"/>
	<path fill-rule="evenodd" clip-rule="evenodd" fill="#FFFFFF" d="M154.593,288.423c2.443,5.947,1.23,9.871-2.614,12.971
		c-0.635,0.513-3.533-0.508-3.52-0.652C148.863,296.226,151.062,292.618,154.593,288.423z"/>
	<path fill-rule="evenodd" clip-rule="evenodd" fill="#FFFFFF" d="M232.242,692.543c-2.255,1.091-4.201,2.173-4.278,2.051
		c-2.164-3.359-8.194-2.652-8.415-7.712c-0.055-1.273,1.595-3.725,3.167-2.672C225.955,686.376,228.667,689.331,232.242,692.543z"/>
	<path fill-rule="evenodd" clip-rule="evenodd" fill="#FFFFFF" d="M688.065,692.786c-2.792,2.166-4.095,6.407-8.346,6.429
		c-1.042,0.004-3.662-1.53-2.357-3.282c1.922-2.576,3.747-5.828,7.367-6.309C686.316,689.413,687.481,691.015,688.065,692.786z"/>
	<path fill-rule="evenodd" clip-rule="evenodd" fill="#FFFFFF" d="M660.897,714.654c-3.037,3.897-6.224,5.772-9.637,7.206
		c-1.078,0.452-3.141,0.236-3.125-1.392c0.054-5.143,5.684-4.729,8.231-7.578C658.004,711.062,658.345,714.597,660.897,714.654z"/>
	<path fill-rule="evenodd" clip-rule="evenodd" fill="#FFFFFF" d="M288.652,152.64c-1.99-0.065-4.286,0.081-3.766-2.295
		c0.841-3.835,4.885-4.136,7.723-5.573c1.178-0.596,4.019-0.688,3.814,1.639C296.017,151.048,291.134,150.654,288.652,152.64z"/>
	<path fill-rule="evenodd" clip-rule="evenodd" fill="#FFFFFF" d="M559.854,767.237c-1.641,3.695-6.76,1.009-9.878,3.288
		c-1.547,1.132-2.475-1.854-1.979-3.34c1.507-4.509,6.623-1.102,9.367-3.976C558.494,762.026,560.03,764.211,559.854,767.237z"/>
	<path fill-rule="evenodd" clip-rule="evenodd" fill="#FFFFFF" d="M304.61,144.587c-2.252-0.268-3.938-0.595-3.417-2.311
		c1.248-4.117,5.205-4.763,8.623-5.754c1.678-0.486,3.823,0.43,2.965,2.59C311.237,142.993,306.85,142.817,304.61,144.587z"/>
	<path fill-rule="evenodd" clip-rule="evenodd" fill="#FFFFFF" d="M137.514,336.459c-3.4-0.452-4.614-1.663-3.269-3.45
		c2.069-2.748,0.298-8.106,5.442-8.563c2.49-0.22,2.472,2.748,1.795,3.635C139.499,330.685,140.947,335.544,137.514,336.459z"/>
	<path fill-rule="evenodd" clip-rule="evenodd" fill="#FFFFFF" d="M122.193,482.903c-4.094-3.045-6.29-6.488-4.084-10.916
		c0.334-0.674,2.944-1.148,3.463-0.644C125.218,474.885,122.534,478.954,122.193,482.903z"/>
	<path fill-rule="evenodd" clip-rule="evenodd" fill="#FFFFFF" d="M494.619,107.118c-4.502,3.646-8.209,3.673-11.814,1.151
		c-0.477-0.333-0.172-3.142,0.536-3.585C487.523,102.057,490.836,104.85,494.619,107.118z"/>
	<path fill-rule="evenodd" clip-rule="evenodd" fill="#FFFFFF" d="M124.281,501.323c-3.003-3.291-5.491-6.56-4.358-10.844
		c0.152-0.572,2.791-1.283,3.421-0.803C127.703,492.986,124.003,497.339,124.281,501.323z"/>
	<path fill-rule="evenodd" clip-rule="evenodd" fill="#FFFFFF" d="M280.303,156.718c-0.803,4.165-4.784,4.333-7.468,5.875
		c-1.597,0.918-3.872-1.188-3.692-2.405c0.571-3.882,4.669-3.868,7.381-5.236C277.717,154.351,279.923,154.36,280.303,156.718z"/>
	<path fill-rule="evenodd" clip-rule="evenodd" fill="#FFFFFF" d="M350.632,761.034c1.335,3.02,6.882-0.215,7.294,4.661
		c0.148,1.754-0.884,4.117-2.57,2.8c-2.774-2.166-7.95-0.147-8.729-4.902C346.434,762.421,348.318,760.808,350.632,761.034z"/>
	<path fill-rule="evenodd" clip-rule="evenodd" fill="#FFFFFF" d="M123.539,505.335c5.022,5.649,7.03,9.053,5.288,13.553
		c-0.183,0.47-1.855,0.92-2.381,0.609C121.475,516.562,123.842,512.14,123.539,505.335z"/>
	<path fill-rule="evenodd" clip-rule="evenodd" fill="#FFFFFF" d="M341.078,759.95c-1.09,1.497-2.385,3.485-3.979,2.557
		c-2.673-1.561-6.946-1.647-7.327-5.793c-0.23-2.511,2.447-2.396,3.644-1.847C336.18,756.139,339.776,756.463,341.078,759.95z"/>
	<path fill-rule="evenodd" clip-rule="evenodd" fill="#FFFFFF" d="M626.597,732.273c2.233,7.566-3.664,7.718-6.827,9.851
		c-1.08,0.727-2.499-0.448-2.482-2.074C617.345,733.981,623.594,735.508,626.597,732.273z"/>
	<path fill-rule="evenodd" clip-rule="evenodd" fill="#FFFFFF" d="M130.623,355.46c-1.334-4.937-2.757-8.791,1.375-12.177
		c1.248-1.021,2.737-0.929,3.158,0.55C136.412,348.255,134.955,351.841,130.623,355.46z"/>
	<path fill-rule="evenodd" clip-rule="evenodd" fill="#FFFFFF" d="M762.084,585.474c2.372,0.364,2.388,2.568,1.79,3.768
		c-1.359,2.727-1.381,6.8-5.233,7.413c-1.161,0.186-3.325-2.078-2.409-3.7C757.758,590.258,757.941,586.292,762.084,585.474z"/>
	<path fill-rule="evenodd" clip-rule="evenodd" fill="#FFFFFF" d="M237.674,697.619c2.85,1.502,6.086,3.218,5.962,7.688
		c-0.057,2.049-1.007,1.57-2.508,1.026c-3.33-1.208-6.109-3.173-7.266-6.367C233.084,697.82,235.363,697.535,237.674,697.619z"/>
	<path fill-rule="evenodd" clip-rule="evenodd" fill="#FFFFFF" d="M751.842,613.521c-0.68,0-1.361,0-2.04,0
		c-0.618-1.737-3.037-3.168-1.386-5.286c1.848-2.365,2.164-7.909,6.321-5.964c3.42,1.6-0.123,5.2-0.99,7.823
		C753.345,611.313,752.491,612.381,751.842,613.521z"/>
	<path fill-rule="evenodd" clip-rule="evenodd" fill="#FFFFFF" d="M649.852,165.857c-1.12,0.605-1.475,0.954-1.672,0.88
		c-3.943-1.479-8.231-2.577-9.721-7.228c-0.131-0.41,1.539-2.038,1.997-1.895C644.603,158.904,648.446,160.708,649.852,165.857z"/>
	<path fill-rule="evenodd" clip-rule="evenodd" fill="#FFFFFF" d="M260.373,715.535c-5.106,5.339-7.936-1.162-11.702-2.419
		c-1.424-0.477-0.657-2.312,0.262-3.318c0.808-0.885,1.901-2.313,3.069-0.771c2.215,2.931,6.955,2.693,8.188,6.729
		C260.195,715.75,260.373,715.535,260.373,715.535z"/>
	<path fill-rule="evenodd" clip-rule="evenodd" fill="#FFFFFF" d="M217.504,680.436c-8.472,2.083-8.568-3.878-11.141-10.037
		C212.637,672.634,215.593,675.565,217.504,680.436z"/>
	<path fill-rule="evenodd" clip-rule="evenodd" fill="#FFFFFF" d="M771.99,571.781c-3.02,1.336,0.215,6.883-4.661,7.294
		c-1.754,0.149-4.117-0.883-2.8-2.57c2.166-2.774,0.147-7.949,4.902-8.729C770.604,567.585,772.218,569.47,771.99,571.781z"/>
	<path fill-rule="evenodd" clip-rule="evenodd" fill="#FFFFFF" d="M795.538,435.164c-1.729-1.568-2.666-2.254-2.597-2.381
		c2.017-3.651-4.631-6.939-0.452-10.502c0.552-0.471,2.484-0.383,2.798,0.094C797.781,426.163,797.013,430.079,795.538,435.164z"/>
	<path fill-rule="evenodd" clip-rule="evenodd" fill="#FFFFFF" d="M775.336,328.9c4.366,4.818,6.249,8.385,4.014,13.694
		C774.284,339.481,773.597,335.463,775.336,328.9z"/>
	<path fill-rule="evenodd" clip-rule="evenodd" fill="#FFFFFF" d="M132.214,539.731c-4.118-4.862-5.804-8.573-3.645-14.378
		C133.027,529.247,134.568,532.978,132.214,539.731z"/>
	<path fill-rule="evenodd" clip-rule="evenodd" fill="#FFFFFF" d="M437.339,105.384c-3.688,2.056-7.156,4.67-11.533,2.991
		c-0.384-0.147-0.632-2.233-0.187-2.71C429.117,101.923,433.255,104.054,437.339,105.384z"/>
	<path fill-rule="evenodd" clip-rule="evenodd" fill="#FFFFFF" d="M627.071,148.679c2.013,1.408,5.836,0.924,6.309,4.815
		c0.215,1.76-0.519,3.939-2.631,2.869c-2.568-1.3-6.193-1.7-7.146-5.064C622.942,148.963,624.929,148.703,627.071,148.679z"/>
	<path fill-rule="evenodd" clip-rule="evenodd" fill="#FFFFFF" d="M323.407,753.073c-4.272,3.908-7.372-1.109-11.024-0.977
		c-1.814,0.066-1.205-2.201-0.497-3.098c0.621-0.787,1.32-2.685,2.926-1.591C317.577,749.294,321.7,749.268,323.407,753.073z"/>
	<path fill-rule="evenodd" clip-rule="evenodd" fill="#FFFFFF" d="M493.475,778.333c3.874,0.235,6.791-5.679,10.897-1.982
		c0.643,0.578,0.595,3.283,0.035,3.62C500.605,782.253,496.925,781.541,493.475,778.333z"/>
	<path fill-rule="evenodd" clip-rule="evenodd" fill="#FFFFFF" d="M771.59,325.591c-3.311-3.058-3.414-7.262-4.466-11.072
		c1.308-0.122,3.481-0.774,3.78-0.283C773.036,317.726,776.942,321.332,771.59,325.591z"/>
	<path fill-rule="evenodd" clip-rule="evenodd" fill="#FFFFFF" d="M260.386,164.826c1.971,0.38,3.943,0.345,3.45,2.086
		c-0.938,3.31-3.145,5.76-6.851,6.103c-1.231,0.114-3.147-0.127-2.729-1.883C255.083,167.671,257.84,165.937,260.386,164.826z"/>
	<path fill-rule="evenodd" clip-rule="evenodd" fill="#FFFFFF" d="M130.331,365.204c-2.628,1.493,1.715,6.697-2.966,6.482
		c-5.05-0.235-1.692-4.221-1.938-6.556c-0.279-2.645,0.361-4.742,3.703-4.167C132.333,361.516,131.599,363.315,130.331,365.204z"/>
	<path fill-rule="evenodd" clip-rule="evenodd" fill="#FFFFFF" d="M523.119,774.83c-3.266,1.716-5.867,5.468-10.094,3.013
		c-0.616-0.356-1.256-2.009-0.983-2.359C515.148,771.494,519.115,772.973,523.119,774.83z"/>
	<path fill-rule="evenodd" clip-rule="evenodd" fill="#FFFFFF" d="M634.288,731.634c0.842-4.396,2.479-7.893,7.39-7.375
		c0.653,0.068,1.801,1.3,1.701,1.777C642.367,730.851,637.662,730.078,634.288,731.634z"/>
	<path fill-rule="evenodd" clip-rule="evenodd" fill="#FFFFFF" d="M543.399,770.972c-5.48,2.266-8.666,7.156-13.427,1.236
		C533.534,769.577,536.983,767.547,543.399,770.972z"/>
	<path fill-rule="evenodd" clip-rule="evenodd" fill="#FFFFFF" d="M145.965,307.059c1.389,1.388,3.914,0.176,2.833,2.505
		c-1.314,2.832-0.341,7.102-4.578,8.17c-1.519,0.384-2.39-0.708-2.409-2.314C141.767,311.842,144.016,309.728,145.965,307.059z"/>
	<path fill-rule="evenodd" clip-rule="evenodd" fill="#FFFFFF" d="M118.976,448.667c-2.263-6.44-2.036-10.297,0.361-14.003
		C121.573,438.684,121.999,442.583,118.976,448.667z"/>
	<path fill-rule="evenodd" clip-rule="evenodd" fill="#FFFFFF" d="M793.302,415.53c-3.802-3.715-2.197-7.604-2.802-14.021
		C796.452,407.464,793.84,411.648,793.302,415.53z"/>
	<path fill-rule="evenodd" clip-rule="evenodd" fill="#FFFFFF" d="M119.118,430.69c-2.435-6.835-2.057-10.673-0.095-14.453
		C121.911,420.081,121.799,423.934,119.118,430.69z"/>
	<path fill-rule="evenodd" clip-rule="evenodd" fill="#FFFFFF" d="M123.258,389.171c-1.99-3.338-3.234-6.662-0.38-9.641
		c0.53-0.553,3.376-0.1,3.53,0.395C127.512,383.464,124.963,386.134,123.258,389.171z"/>
	<path fill-rule="evenodd" clip-rule="evenodd" fill="#FFFFFF" d="M119.24,464.519c-2.434-3.876-2.758-7.735-0.198-13.013
		C122.255,456.659,121.588,460.565,119.24,464.519z"/>
	<path fill-rule="evenodd" clip-rule="evenodd" fill="#FFFFFF" d="M795.343,452.26c-3.794-3.715-2.226-7.604-2.706-13.921
		C798.495,444.193,795.879,448.378,795.343,452.26z"/>
	<path fill-rule="evenodd" clip-rule="evenodd" fill="#FFFFFF" d="M442.283,104.457c6.188-0.746,9.837-1.463,15.233,1.185
		C452.042,108.582,448.405,108.473,442.283,104.457z"/>
	<path fill-rule="evenodd" clip-rule="evenodd" fill="#FFFFFF" d="M462.877,105.769c4.755-2.669,7.949-2.669,12.704,0
		C470.826,108.438,467.632,108.438,462.877,105.769z"/>
	<path fill-rule="evenodd" clip-rule="evenodd" fill="#FFFFFF" d="M120.72,397.962c3.236,3.02,3.117,6.224,1.288,10.209
		C117.384,404.875,120.149,401.208,120.72,397.962z"/>
	<path fill-rule="evenodd" clip-rule="evenodd" fill="#FFFFFF" d="M704.807,722.679c0.188,1.955-0.475,3.198-2.621,3.324
		c-1.919,0.109-3.194-0.475-3.312-2.639c-0.105-1.923,0.477-3.192,2.639-3.312C703.436,719.945,704.732,720.533,704.807,722.679z"/>
	<path fill-rule="evenodd" clip-rule="evenodd" fill="#184169" d="M327.22,150.607c-1.288-0.094-2.576-0.188-3.865-0.282
		c0-1.817,0-3.635,0-5.452c1.288-0.094,2.576-0.188,3.865-0.282C329.066,146.597,329.066,148.602,327.22,150.607z"/>
	<path fill-rule="evenodd" clip-rule="evenodd" fill="#184169" d="M327.22,140.405c-1.288-0.094-2.576-0.188-3.865-0.282
		c0-1.817,0-3.634,0-5.452c1.288-0.094,2.577-0.188,3.865-0.281C329.065,136.395,329.065,138.399,327.22,140.405z"/>
	<path fill-rule="evenodd" clip-rule="evenodd" fill="#184169" d="M323.354,112.225c1.289-0.094,2.577-0.188,3.866-0.282
		c1.847,2.006,1.847,4.01,0,6.016c-1.288-0.094-2.576-0.188-3.865-0.282C323.354,115.859,323.354,114.042,323.354,112.225z"/>
	<path fill-rule="evenodd" clip-rule="evenodd" fill="#184169" d="M327.22,107.756c-1.288-0.094-2.576-0.188-3.865-0.282
		c0-1.817,0-3.634,0-5.452c1.288-0.094,2.577-0.188,3.865-0.281C329.065,103.746,329.065,105.75,327.22,107.756z"/>
	<path fill-rule="evenodd" clip-rule="evenodd" fill="#184169" d="M323.354,155.076c1.289-0.094,2.577-0.188,3.866-0.282
		c1.847,2.006,1.847,4.01,0,6.016c-1.288-0.094-2.576-0.188-3.865-0.282C323.354,158.71,323.354,156.894,323.354,155.076z"/>
	<path fill-rule="evenodd" clip-rule="evenodd" fill="#184169" d="M323.354,79.577c1.289-0.094,2.577-0.188,3.866-0.282
		c1.847,2.006,1.847,4.01,0,6.015c-1.288-0.094-2.576-0.188-3.865-0.281C323.354,83.211,323.354,81.394,323.354,79.577z"/>
	<path fill-rule="evenodd" clip-rule="evenodd" fill="#1A926E" d="M601.042,503.42c0.582-5.406,4.874-3.874,7.819-3.723
		c5.895,0.308,9.23-1.45,8.284-7.917c-1.313-8.977,4.563-8.312,10.641-8.664c7.69-0.444,7.915,3.912,7.813,9.539
		c-0.205,11.159-0.067,22.322-0.069,33.483c-4.446-7.341-11.726-11.494-18.385-16.344c0.592-0.835,1.365-1.421,2.341-1.733
		c-0.529-0.72-1.283-0.277-1.913-0.31c-3.009-0.147-5.904-0.797-8.737-1.777C605.99,505.877,603.25,505.461,601.042,503.42z"/>
	<path fill-rule="evenodd" clip-rule="evenodd" fill="#146047" d="M608.836,505.975c7.821,0.044,15.74-1.315,26.011,1.507
		c-7.321,3.375-12.654,1.845-17.701,2.313C613.886,509.587,611.197,508.139,608.836,505.975z"/>
	<path fill-rule="evenodd" clip-rule="evenodd" fill="#1A936F" d="M278.183,601.419c-7.689-0.054-12.02-4.221-11.774-11.6
		c0.297-8.957,7.139-8.965,13.815-8.409C279.543,588.078,278.862,594.749,278.183,601.419z"/>
	<path fill-rule="evenodd" clip-rule="evenodd" fill="#D32627" d="M482.822,568.954c-5.028,24.349-10.058,48.699-15.086,73.049
		c-0.953,0.063-1.906,0.129-2.859,0.195c-4.902-23.054-9.805-46.105-14.708-69.157c-2.737-22.799,1.461-45.439,1.538-68.179
		c2.1-7.803,6.691-13.877,15.129-13.231c8.374,0.638,13.375,6.688,15.242,14.981C481.082,527.406,485.494,548.141,482.822,568.954z"
		/>
	<path fill-rule="evenodd" clip-rule="evenodd" fill="#F9F9FA" d="M480.284,505.616c-0.491-0.831-0.85-1.785-1.492-2.475
		c-12.666-13.555-12.942-13.543-25.207,0.525c-3.992,5.628-7.725,11.594-15.66,12.132c-4.707-15.972-8.771-32.081-10.588-48.678
		c10.351,5.428,20.875,10.556,30.982,16.403c5.545,3.209,10.123,3.476,15.629,0.005c8.163-5.147,16.754-9.615,25.164-14.372
		c1.93-0.68,3.857-1.358,5.785-2.036c-1.572,16.635-5.84,32.692-10.484,48.666C487.195,515.88,484.067,510.295,480.284,505.616z"/>
	<path fill-rule="evenodd" clip-rule="evenodd" fill="#D1D2D2" d="M437.925,515.799c5.519-3.659,9.152-9.753,15.66-12.132
		c5.891,10.004,0.241,20.266-0.222,30.178c-0.608,13.004,0.154,26.34-3.194,39.196C445.727,554.039,440.579,535.184,437.925,515.799
		z"/>
	<path fill-rule="evenodd" clip-rule="evenodd" fill="#D1D2D2" d="M480.284,505.616c6.713,0.607,8.826,7.604,14.129,10.171
		c-2.576,18.002-6.813,35.644-11.591,53.167c-3.013-19.248-4.544-38.608-4.38-58.094
		C478.458,508.968,477.755,506.685,480.284,505.616z"/>
	<path fill-rule="evenodd" clip-rule="evenodd" fill="#194269" d="M745.723,229.215c0,12.242-0.186,24.488,0.069,36.724
		c0.153,7.487-2.549,11.381-10.527,11.295c-17.682-0.189-35.364-0.112-53.048-0.031c-6.661,0.031-9.995-2.907-9.979-9.72
		c0.056-26.185,0.056-52.368,0-78.552c-0.014-6.805,3.302-9.762,9.968-9.731c17.684,0.08,35.368,0.158,53.05-0.033
		c7.973-0.085,10.681,3.792,10.537,11.284C745.543,203.367,745.723,216.293,745.723,229.215z"/>
	<path fill-rule="evenodd" clip-rule="evenodd" fill="#3A3B3B" d="M553.572,313.933c-4.535-0.678-9.072-1.356-13.607-2.035
		c-13.39-7.205-28.443-7.563-42.914-10.072c-9.52-1.65-19.313-1.726-28.983-2.507c0.044-8.73,0.087-17.461,0.131-26.19
		c27.362-11.221,55.721-19.516,83.827-28.546c7.784,13.956,9.757,29.254,10.362,44.868
		C554.022,295.657,557.952,306.291,553.572,313.933z"/>
	<path fill-rule="evenodd" clip-rule="evenodd" fill="#21639F" d="M447.09,771.741c5.149,3.179,5.95,10.095,11.86,12.522
		c2-0.852,0.661-2.798,1.092-4.167c0.717-2.281-1.633-6.506,2.181-6.546c3.438-0.036,5.03,2.945,2.414,6.53
		c-0.404,0.556,0.033,1.847,0.283,2.741c4.49,16.098,1.822,23.608-11.77,32.523c-16.204,10.625-41.846,8.561-55.255-3.139
		c-17.304-15.095-19.723-39.974-9.386-57.314c3.031-5.083,7.865-8.317,11.557-12.684c2.366-2.8,4.379,0.03,6.021,0.781
		c3.245,1.485-0.085,2.97-0.284,4.42c-1.071,7.802-7.228,11.988-11.373,17.37c-7.998,10.385-6.65,16.741,4.942,23.004
		c4.17,2.254,7.575,6.789,7.489,12.184c-0.059,3.658,1.389,6.594,3.048,9.39c5.309,8.945,11.135,9.097,17.427,0.722
		c1.423-1.894,2.745-7.736,4.353-0.042c0.482,2.308,2.82,2.099,4.1,1.48c3.059-1.477,1.936-5.251,3.435-7.792
		c0.713-1.209-0.946-4.187-3.466-3.015c-2.399,1.116-4.108,0.741-5.121-1.261c-1.539-3.039,1.899-3.753,3.22-5.235
		C439.703,787.639,442.048,779.176,447.09,771.741z"/>
	<path fill-rule="evenodd" clip-rule="evenodd" fill="#21639F" d="M468.429,761.854c5.396,7.511,3.595,15.767,2.828,23.914
		C470.53,777.773,470.159,769.742,468.429,761.854z"/>
	<path fill-rule="evenodd" clip-rule="evenodd" fill="#21639F" d="M434.851,735.147c-3.477,1.843-6.99,3.262-10.624,0.634
		c-0.534-0.387-0.716-2.447-0.409-2.629C427.96,730.706,431.359,733.103,434.851,735.147z"/>
	<path fill-rule="evenodd" clip-rule="evenodd" fill="#D32627" d="M272.658,244.532c-0.637,4.42-3.097,7.924-7.483,7.923
		c-4.385-0.001-6.845-3.505-7.48-7.925c2.016-3.236,3.059-7.195,8.626-6.294C270.462,238.907,272.269,240.691,272.658,244.532z"/>
	<path fill-rule="evenodd" clip-rule="evenodd" fill="#D32627" d="M251.685,244.608c-1.281,4.426-4.095,8.028-8.691,7.697
		c-3.619-0.261-6.37-3.284-5.704-7.773C241.524,235.738,245.417,235.76,251.685,244.608z"/>
	<path fill-rule="evenodd" clip-rule="evenodd" fill="#D32627" d="M227.767,244.532c0.661,4.941-2.503,7.764-6.461,7.764
		s-7.122-2.822-6.461-7.764c0.388-4.23,2.487-6.347,6.952-6.167C225.926,238.53,227.375,240.932,227.767,244.532z"/>
	<path fill-rule="evenodd" clip-rule="evenodd" fill="#D32627" d="M744.248,658.745c-8.152,0-16.307,0.006-24.459-0.004
		c-2.401-0.002-4.962,0.213-4.604-3.501c0.288-3.029,2.59-2.577,4.487-2.581c15.966-0.04,31.933-0.025,47.898-0.02
		c2.405,0,4.96-0.205,4.605,3.503c-0.289,3.027-2.593,2.563-4.488,2.577C759.874,658.777,752.062,658.743,744.248,658.745z"/>
	<path fill-rule="evenodd" clip-rule="evenodd" fill="#D32627" d="M771.992,668.089c-18.869,0-37.738,0-56.606,0
		c18.775-4.271,37.695-2.702,56.559-3.315C771.96,665.879,771.977,666.983,771.992,668.089z"/>
	<path fill-rule="evenodd" clip-rule="evenodd" fill="#D32627" d="M715.367,643.292c18.869,0,37.738,0,56.607,0
		c-18.775,4.271-37.696,2.702-56.56,3.315C715.399,645.502,715.384,644.397,715.367,643.292z"/>
	<path fill-rule="evenodd" clip-rule="evenodd" fill="#D32627" d="M771.973,635.4c-18.871,0-37.742,0-56.611,0
		c0-0.682,0-1.358,0-2.04c18.869,0,37.738,0,56.606,0C771.97,634.042,771.97,634.719,771.973,635.4z"/>
	<path fill-rule="evenodd" clip-rule="evenodd" fill="#F6F4F4" d="M545.817,83.119c5.943-3.414,4.331-5.727-1.736-7.267
		c6.379-1.931,9.373-0.299,8.084,7.262c1.93-5.745,2.82-11.693,9.813-6.137c-2.438,6.273,5.408,2.979,5.992,6.439
		c5.354,4.286,10.767,8.217,13.178,15.405c0.977,2.904,3.873,5.203,3.438,8.952c-0.226,1.942,0.141,3.227,2.743,4.357
		c2.953,1.281,3.782-5.667,4.982-1.424c1.586,5.606-5.305,1.411-6.827,4.264c1.729,2.417,5.478-0.607,6.994,2.498
		c-0.203,0.685-0.389,1.302-0.574,1.919c-4.296-1.798-6.188-3.302-6.97,4.206c-0.599,5.759-5.249,13.22-11.749,16.691
		c-4.635,2.476-4.979,5.525-3.282,10.683c-5.027-7.517-11.532-4.541-17.243-3.938c-11.422,1.21-22.864-5.572-27.223-16.864
		c0.272-0.384,0.545-0.769,0.812-1.161c7.898-4.053,15.617-8.452,23.537-12.487c1.428-0.334,2.854-0.319,4.281,0.001
		c4.159,1.141,7.285,4.279,11.121,6.039c-3.74-2.182-7.262-4.656-10.631-7.378c-1.114-1.038-2.041-2.22-2.813-3.532
		C548.848,102.33,545.575,93.088,545.817,83.119z"/>
	<path fill-rule="evenodd" clip-rule="evenodd" fill="#F6F4F4" d="M525.437,130.165c-4.815-2.02-6.259-7.739-7.063-10.986
		c-2.684-10.826,11.03-31.381,22.22-35.784c0.847-0.333,1.996,0.1,3.003,0.176c6.274,7.962,5.248,18.106,8.1,27.084
		c0.062,1.039-0.08,2.056-0.415,3.042c-7.114,7.983-17.598,10.719-26.036,16.654L525.437,130.165z"/>
	<path fill-rule="evenodd" clip-rule="evenodd" fill="#21639F" d="M550.156,111.905c-2.187-9.445-4.375-18.891-6.562-28.335
		c0.742-0.148,1.483-0.299,2.224-0.45c5.576,8.657,4.96,19.081,8.101,28.434C552.779,112.895,551.531,113.083,550.156,111.905z"/>
	<path fill-rule="evenodd" clip-rule="evenodd" fill="#184169" d="M567.97,83.417c-2.573-0.31-5.375-0.109-7.639-1.116
		c-1.406-0.627-4.61-0.461-4.101-3.209c0.622-3.341,3.87-1.221,5.747-2.114C562.563,80.438,569.841,77.671,567.97,83.417z"/>
	<path fill-rule="evenodd" clip-rule="evenodd" fill="#F6F4F4" d="M530.667,144.886c-5.529-0.903-7.402-2.121-6.949-6.508
		C525.894,140.415,527.53,141.949,530.667,144.886z"/>
	<path fill-rule="evenodd" clip-rule="evenodd" fill="#1A936F" d="M795.46,373.952c-0.276,4.46-3.519,6.833-8.128,7.202
		c-5.213,0.416-8.524-2.481-8.813-7.513c-0.323-5.619,3.051-8.312,8.688-8.784C793.746,364.311,795.219,368.379,795.46,373.952z"/>
	<path fill-rule="evenodd" clip-rule="evenodd" fill="#FFFFFF" d="M327.22,85.31c0-2.005,0-4.009,0-6.015
		c0.666,0.068,1.334,0.123,1.997,0.207c2.371,0.301,5.813,3.194,6.695-0.81c0.837-3.793-3.187-3.219-5.68-3.512
		c-0.992-0.118-2.008-0.053-3.013-0.071c-1.397-9.805,2.807-12.709,12.552-12.412c22.727,0.693,45.492,0.451,68.233,0.087
		c7.208-0.116,9.377,2.393,9.317,9.442c-0.284,33.27-0.263,66.545,0.002,99.816c0.046,5.776-1.605,7.39-7.343,7.314
		c-23.424-0.309-46.875-0.727-70.269,0.149c-10.177,0.381-14.271-2.324-12.493-12.468c2.189-0.058,4.378-0.117,6.565-0.175
		c3.06-1.959,3.06-3.917,0-5.876c-2.188-0.059-4.376-0.118-6.565-0.175c0-2.006,0-4.01,0-6.016c0.666,0.068,1.334,0.123,1.997,0.206
		c2.371,0.301,5.813,3.194,6.695-0.81c0.837-3.793-3.187-3.219-5.68-3.512c-0.992-0.118-2.008-0.053-3.013-0.071
		c0-2.006,0-4.01,0-6.016c0.666,0.068,1.334,0.123,1.997,0.207c2.371,0.301,5.813,3.194,6.695-0.81
		c0.837-3.793-3.187-3.219-5.68-3.512c-0.992-0.118-2.008-0.053-3.013-0.071c0-2.006,0-4.01,0-6.016
		c1.993-0.001,3.986-0.002,5.979-0.003c3.793-1.667,3.963-3.687,0.587-6.048c-2.347-0.188-4.86,0.132-6.505-2.164
		c0.479-0.432,0.937-0.893,1.443-1.29c2.274-1.783,8.041,0.561,7.086-4.385c-0.743-3.85-5.528-2.072-8.59-2.54
		c0-2.006,0-4.01,0-6.016c0.666,0.068,1.334,0.123,1.997,0.207c2.371,0.301,5.813,3.194,6.695-0.81
		c0.837-3.793-3.187-3.219-5.68-3.512c-0.992-0.118-2.008-0.053-3.013-0.071c0-2.006,0-4.01,0-6.016
		c2.439-0.442,6.293,1.149,7.022-1.709c1.339-5.23-5.401-3.406-6.962-6.505c1.644-2.295,4.157-1.977,6.504-2.164
		c3.378-2.362,3.207-4.381-0.586-6.048C331.206,85.313,329.213,85.312,327.22,85.31z"/>
	<path fill-rule="evenodd" clip-rule="evenodd" fill="#21639F" d="M805.001,495.258c-5.981,0.741-6.962,4.888-5.956,9.645
		c1.455,6.863,7.271,4.356,11.638,4.851c4.428,8.748,9.828,17.027,12.688,26.524c-10.492,12.09-24.528,14.206-39.384,14.022
		c-4.979-5.763-4.979-5.763-11.347,0.222c-6.849,1.726-13.423,2.246-18.446-4.123c0.034-5.604,4.037-9.491,6.146-14.198
		c5.004,0.154,10.801,0.965,12.885-4.85c1.421-3.972-1.501-7.439-5.167-9.645c1.235-6.231,3.928-11.919,6.849-17.463
		C779.708,491.127,796.651,488.411,805.001,495.258z"/>
	<path fill-rule="evenodd" clip-rule="evenodd" fill="#1A936F" d="M562.388,289.45c-3.668-14.908-8.982-29.434-10.362-44.869
		c4.006-1.329,8.011-2.658,12.017-3.987c0.023,16.161,0.048,32.321,0.073,48.482C563.569,289.341,562.993,289.466,562.388,289.45z"
		/>
	<path fill-rule="evenodd" clip-rule="evenodd" fill="#5E8DB7" d="M782.34,548.526c14.83-0.219,28.073-5.754,41.03-12.249
		c4.688,4.087,5.448,9.914,3.256,14.65c-2.132,4.609-8.015,3.792-12.745,3.776c-16.209-0.054-32.419-0.065-48.628,0.004
		c-5.887,0.024-10.872-0.877-11.06-8.31c6.512,2.817,13.391,2.177,20.206,2.128C777.046,546.522,779.692,545.952,782.34,548.526z"/>
	<path fill-rule="evenodd" clip-rule="evenodd" fill="#1A936F" d="M590.808,760.8c-3.103-1.555-5.998-3.344-6.167-7.172
		c-0.142-3.229,1.984-4.56,5.062-5.123c4.721-0.861,6.115,2.768,6.621,5.669C596.894,757.454,593.438,759.021,590.808,760.8z"/>
	<path fill-rule="evenodd" clip-rule="evenodd" fill="#1A936F" d="M96.276,366.294c-0.148,3.265-2.249,4.504-5.238,4.605
		c-3.426,0.113-6.037-1.27-6.119-4.968c-0.07-3.118,2.088-4.636,5.13-4.966C93.987,360.537,95.066,363.413,96.276,366.294z"/>
	<path fill-rule="evenodd" clip-rule="evenodd" fill="#1A936F" d="M178.507,677.1c6.032,6.696,6.145,15.276-0.553,19.495
		c-5.359,3.375-10.068,10.874-18.249,4.981c-2.024-1.459-3.872-2.738-3.614-5.492c0.355-3.784,3.691-3.064,5.385-2.484
		c5.25,1.8,10.015-9.248,15.236-0.431c1.697-2.222,4.719-4.254,2.953-7.437c-1.653-2.979-1.052-5.854-0.974-8.834L178.507,677.1z"/>
	<path fill-rule="evenodd" clip-rule="evenodd" fill="#1A936F" d="M178.69,676.898c-5.833-0.958-8.179,3.254-11.327,9.501
		c-1.063-5.985-1.574-10.668-7.867-9.411c-3.335,0.665-4.711,3.118-3.042,4.562c4.854,4.19,0.426,5.703-1.621,7.833
		c-2.377,2.475-4.486,3.531-4.944-1.509c-0.252-2.775,3.985-2.351,3.17-3.961c-3.472-6.855,2.274-11.389,5.824-11.562
		c6.484-0.317,15.457-5.843,19.62,4.75C178.507,677.1,178.69,676.898,178.69,676.898z"/>
	<path fill-rule="evenodd" clip-rule="evenodd" fill="#1A936F" d="M770.008,410.228c1.657,0.297,2.159,1.768,1.885,3.497
		c-0.261,1.662-1.184,3.24-3.087,2.886c-1.768-0.327-2.482-1.978-2.383-3.74C766.532,410.938,767.654,410.021,770.008,410.228z"/>
	<path fill-rule="evenodd" clip-rule="evenodd" fill="#21639F" d="M766.228,529.743c-1.79-0.446-3.499-1.184-2.962-3.224
		c0.574-2.176,1.07-5.018,3.88-5.274c1.732-0.158,2.758,1.62,2.828,3.459C770.073,527.389,768.832,529.118,766.228,529.743z"/>
	<path fill-rule="evenodd" clip-rule="evenodd" fill="#21639F" d="M803.949,498.611c2.25,0.979,4.204,2.417,4.399,4.889
		c0.178,2.233-1.444,3.76-3.698,3.61c-2.218-0.149-3.378-1.893-3.595-4.031C800.837,500.907,801.745,499.308,803.949,498.611z"/>
	<path fill-rule="evenodd" clip-rule="evenodd" fill="#1C1C1C" d="M333.198,85.313c3.131-2.799,3.825,0.166,4.302,2.113
		c0.685,2.792-0.331,4.65-3.716,3.935C335.287,89.181,335.03,87.171,333.198,85.313z"/>
	<path fill-rule="evenodd" clip-rule="evenodd" fill="#1C1C1C" d="M333.785,128.338c3.384-0.715,4.399,1.145,3.715,3.936
		c-0.477,1.947-1.171,4.912-4.302,2.112C335.031,132.528,335.286,130.518,333.785,128.338z"/>
	<path fill-rule="evenodd" clip-rule="evenodd" fill="#1C1C1C" d="M333.785,160.985c2.262-0.304,3.879-0.045,3.879,2.939
		c0.001,2.986-1.618,3.242-3.879,2.937C334.873,164.903,334.872,162.944,333.785,160.985z"/>
	<path fill-rule="evenodd" clip-rule="evenodd" fill="#FFFFFF" d="M701.012,211.88c5.771-0.001,11.54,0.012,17.311-0.006
		c3.667-0.011,7.597-0.952,7.112,5.258c-0.351,4.487-1.63,7.359-6.492,6.94c-12.534-1.078-25.061-0.663-37.57,0.116
		c-5.269,0.328-4.976-2.712-5.105-6.328c-0.142-4.02,0.534-6.35,5.402-6.07C688.098,212.161,694.562,211.882,701.012,211.88z"/>
	<path fill-rule="evenodd" clip-rule="evenodd" fill="#FFFFFF" d="M700.835,228.203c6.111,0,12.225,0.093,18.333-0.034
		c3.666-0.075,6.636-0.17,6.263,5.115c-0.309,4.391-1.381,7.618-6.316,7.069c-6.808-0.757-13.652,0.232-20.294-0.321
		c-4.573-0.383-8.82,0.029-13.226,0.382c-5.169,0.414-9.288-0.011-9.399-7.146c-0.116-7.425,4.953-4.781,8.347-4.979
		C689.957,227.97,695.402,228.203,700.835,228.203z"/>
	<path fill-rule="evenodd" clip-rule="evenodd" fill="#FFFFFF" d="M717.368,256.745c-11.087-0.892-21.914-1.105-32.75,0.002
		c-5.175,0.529-8.212-0.944-8.434-7.112c-0.227-6.39,3.791-5.074,7.29-5.09c11.543-0.048,23.089-0.063,34.633,0.01
		c3.432,0.021,7.574-1.433,7.355,5.007C725.257,255.638,722.42,257.292,717.368,256.745z"/>
	<path fill-rule="evenodd" clip-rule="evenodd" fill="#FFFFFF" d="M701.291,260.852c6.111,0.001,12.224,0.049,18.335-0.019
		c3.202-0.036,6.052-0.236,5.772,4.53c-0.236,4.073-0.521,7.941-5.723,7.644c-12.54-0.717-25.057-0.578-37.593,0.021
		c-5.187,0.247-5.575-3.447-5.824-7.564c-0.345-5.729,3.525-4.558,6.697-4.593C689.067,260.804,695.18,260.852,701.291,260.852z"/>
	<path fill-rule="evenodd" clip-rule="evenodd" fill="#E9F0F5" d="M700.881,205.415c-5.464-0.001-10.931-0.001-16.395-0.001
		c-1.113-9.783,4.757-15.243,12.21-19.725c5.447,0.001,10.896,0.002,16.346,0.003C713.369,194.967,708.728,201.179,700.881,205.415z
		"/>
	<path fill-rule="evenodd" clip-rule="evenodd" fill="#FFFFFF" d="M739.382,258.232c-0.002,3.022-0.082,6.05,0.02,9.069
		c0.109,3.275,0.006,5.946-4.591,5.645c-4.027-0.265-7.467-0.642-7.451-5.828c0.021-5.711,0.203-11.432-0.056-17.131
		c-0.261-5.74,2.312-7.615,7.837-7.602c6.833,0.018,3.797,4.789,4.173,7.792C739.645,252.824,739.384,255.544,739.382,258.232z"/>
	<path fill-rule="evenodd" clip-rule="evenodd" fill="#FFFFFF" d="M733.499,185.69c7.03-1.933,9.414,1.369,8.041,7.749
		c-1.015,4.717,4.601,13.547-7.07,12.354c-3.698-0.378-7.447-0.267-11.173-0.379C721.334,196.065,727.671,191.009,733.499,185.69z"
		/>
	<path fill-rule="evenodd" clip-rule="evenodd" fill="#FFFFFF" d="M696.696,185.689c-4.142,6.532-9.508,12.303-12.21,19.725
		c-2.991,0.354-5.585,1.333-6.247-3.671C676.035,185.085,676.347,184.626,696.696,185.689z"/>
	<path fill-rule="evenodd" clip-rule="evenodd" fill="#FFFFFF" d="M700.881,205.415c4.053-6.574,8.108-13.149,12.161-19.723
		c3.403,0,6.807-0.001,10.211-0.002c2.136,9.438-5.235,13.959-10.201,19.724C708.995,205.414,704.938,205.414,700.881,205.415z"/>
	<path fill-rule="evenodd" clip-rule="evenodd" fill="#E9F0F5" d="M713.052,205.414c1.072-7.778,8.476-12.283,10.201-19.724
		c3.415,0,6.831,0,10.246,0c-3.401,6.575-6.801,13.149-10.202,19.724C719.881,205.414,716.466,205.414,713.052,205.414z"/>
	<path fill-rule="evenodd" clip-rule="evenodd" fill="#FFFFFF" d="M733.767,240.352c-4.977,1.074-6.455-1.058-6.616-6.428
		c-0.201-6.673,3.74-5.481,7.748-5.809c5.135-0.418,6.847,1.146,6.954,6.608C741.984,241.35,738.202,240.639,733.767,240.352z"/>
	<path fill-rule="evenodd" clip-rule="evenodd" fill="#FFFFFF" d="M734.143,224.018c-4.962,0.992-6.895-0.624-7.004-6.257
		c-0.128-6.438,3.377-5.797,7.598-5.977c4.841-0.206,7.11,0.674,7.132,6.454C741.893,224.606,738.593,224.512,734.143,224.018z"/>
	<path fill-rule="evenodd" clip-rule="evenodd" fill="#21639F" d="M525.244,130.352c2.779-7.694,11.558-7.341,16.517-12.231
		c2.005-1.978,5.122-2.832,7.732-4.197c1.4,1.171,1.58,2.539,0.651,4.082C542.61,123.664,535.084,129.34,525.244,130.352z"/>
	<path fill-rule="evenodd" clip-rule="evenodd" fill="#21639F" d="M556.29,113.924c4.253,2.569,8.354,5.46,12.817,7.589
		c2.664,1.271,4.049,2.85,2.76,5.279c-1.511,2.846-3.262,0.147-4.956-0.447c-5.085-1.783-9.198-5.054-13.319-8.339
		C553.002,115.661,554.142,114.459,556.29,113.924z"/>
	<path fill-rule="evenodd" clip-rule="evenodd" fill="#D32627" d="M556.29,113.924c-0.898,1.36-1.797,2.72-2.696,4.08
		c-1.153,0.001-2.306,0-3.453,0c-0.211-1.36-0.43-2.721-0.646-4.082c0.22-0.671,0.439-1.342,0.662-2.016
		c1.256-0.119,2.511-0.235,3.763-0.353C554.708,112.344,555.499,113.134,556.29,113.924z"/>
	<path fill-rule="evenodd" clip-rule="evenodd" fill="#184169" d="M788.621,514.045c-0.858,4.119-2.726,7.779-6.996,7.178
		c-3.284-0.462-8.449-2.469-6.773-6.919c1.869-4.951,2.487-11.083,7.89-14.249C784.72,504.759,786.696,509.462,788.621,514.045z"/>
	<path fill-rule="evenodd" clip-rule="evenodd" fill="#184169" d="M808.899,534.791c-0.461,3.872-2.721,7.329-7.441,7.228
		c-3.878-0.084-6.542-2.287-6.887-7.086c-0.398-5.556,2.72-7.645,6.982-7.624C805.267,527.324,808.819,529.27,808.899,534.791z"/>
	<path fill-rule="evenodd" clip-rule="evenodd" fill="#FFFFFF" d="M782.34,548.526c-2.647,0-5.294,0-7.94,0
		c0.655-2.861-2.101-6.535,2.648-8.49c2.341-0.965,3.348-0.329,5.035,0.918C785.563,543.525,783.979,545.952,782.34,548.526z"/>
	<path fill-rule="evenodd" clip-rule="evenodd" fill="#184169" d="M801.672,515.239c1.992-0.341,3.25,0.192,3.138,2.508
		c-0.105,2.185-0.51,4.117-3.325,3.924c-2.24-0.153-2.521-1.91-2.61-3.62C798.778,516.173,799.278,514.709,801.672,515.239z"/>
	<path fill-rule="evenodd" clip-rule="evenodd" fill="#D32627" d="M734.392,254.782c2.445-0.031,3.276,1.041,3.302,2.998
		c0.036,2.758-1.653,3.152-3.857,2.995c-2.296-0.162-2.399-1.76-2.327-3.472C731.596,255.159,732.892,254.554,734.392,254.782z"/>
	<path fill-rule="evenodd" clip-rule="evenodd" fill="#D32627" d="M734.744,232.229c0.528,0.271,2.269,0.611,2.507,1.404
		c0.614,2.03-0.916,2.726-2.754,2.697c-1.297-0.02-2.646-0.149-2.861-1.771C731.409,232.854,732.646,232.469,734.744,232.229z"/>
	<path fill-rule="evenodd" clip-rule="evenodd" fill="#D32627" d="M737.411,216.939c0.217,2.637-1.268,4.081-2.627,4.392
		c-0.818,0.187-2.664-1.666-3.12-2.936c-0.666-1.855,1.193-3.455,2.54-3.736C735.165,214.458,736.544,216.274,737.411,216.939z"/>
</g>
</svg>
